<svg width="31" height="28" viewBox="0 0 31 28" fill="none" xmlns="http://www.w3.org/2000/svg">
<g clip-path="url(#clip0_3806_249)">
<path d="M9.83775 3.36511C9.60432 3.4671 9.37396 3.58075 9.15589 3.70315C9.26953 3.65069 9.51218 3.52539 9.83775 3.36511ZM27.9193 20.2493L27.7841 20.2289L27.7719 20.0977C27.7504 19.8821 27.2497 19.8588 27.0378 19.8588H27.0255C26.8627 19.8588 26.7184 19.8704 26.6324 19.8792C26.5955 19.8821 26.5709 19.885 26.5556 19.885H26.5034C26.3774 19.885 26.2976 19.8267 26.2392 19.7393C25.6372 20.258 24.6789 20.8641 24.6789 20.8641L22.1665 23.1138L20.3206 24.3377L18.0692 25.177L16.6164 25.7656C16.6164 25.7656 14.9701 25.652 12.8416 25.6053C10.7131 25.5587 7.46046 23.7666 6.81546 23.2682C6.17045 22.7699 3.21573 20.8 2.90552 20.6631C3.1113 20.8525 3.31402 21.444 3.3263 21.7267C3.33859 22.0094 3.40923 22.5048 3.40923 22.5048C3.40923 22.5048 3.50445 22.123 3.5413 21.9657C3.78088 22.1259 3.95288 22.3795 4.00816 22.5048C4.06345 22.6301 4.12181 22.8311 4.35524 22.939C4.58866 23.0468 4.67774 23.2158 4.67774 23.2158C4.67774 23.2158 4.33681 23.1488 4.11566 23.2828C4.74531 23.4052 5.12309 24.4572 5.13845 24.4951C5.13538 24.4747 5.07702 24.1716 5.19374 23.9501C5.31352 23.7228 5.53467 24.1046 5.78652 24.4951C6.03838 24.8856 6.1981 25.3693 6.1981 25.3693L6.21653 25.04C6.21653 25.04 6.56974 25.3868 7.19017 25.7598C7.8106 26.1328 7.47581 26.2086 7.24546 26.2872C7.97031 26.226 8.16074 26.4854 8.16074 26.4854L7.60481 26.6107C7.60481 26.6107 7.85053 26.701 8.93782 27.0711C10.3476 27.6131 8.51089 27.4004 8.46174 27.3946C8.48632 27.4062 9.04839 27.6743 9.64425 27.7676C10.2555 27.8637 10.3967 27.3771 10.5288 27.2285C11.0602 26.8934 11.7021 27.1615 11.7021 27.1615L11.2783 27.3654C11.2783 27.3654 11.8403 27.3188 12.0553 27.2401C12.2703 27.1615 12.5468 27.3829 12.7618 27.6044C13.4068 27.1265 13.9135 27.3596 14.9978 27.4121C16.082 27.4645 16.8283 27.2343 17.2675 27.0536C18.6313 27.2926 19.6694 26.8147 19.6694 26.8147C19.6694 26.8147 19.221 26.7564 19.1596 26.6544C19.9858 26.6981 20.9993 26.3747 21.3218 26.296C21.6443 26.2202 23.3858 25.9463 23.7329 25.9375C23.392 25.9375 23.3121 25.8268 23.3121 25.8268C23.3121 25.8268 23.7053 25.6141 23.9295 25.3343C24.3503 24.8739 24.51 24.9322 25.155 24.7282C25.7908 24.5271 26.2239 23.8598 26.2361 23.8365C26.2177 23.8482 25.6526 24.259 25.413 24.3931C25.1673 24.53 25.2349 24.3814 25.3639 24.3027C25.7294 24.1162 25.9075 23.8365 26.2423 23.2537C26.5771 22.6709 26.9272 22.2891 27.0593 22.1405C27.1883 21.9919 27.3971 21.8141 27.2313 22.2542C27.692 21.5781 28.0851 20.9049 28.423 20.2434C28.3954 20.2493 28.3124 20.2638 28.1896 20.2638C28.0944 20.2697 28.0084 20.2609 27.9193 20.2493V20.2493ZM26.1317 7.2962L26.0918 7.42733C26.1409 7.49436 26.1931 7.56138 26.2392 7.62841C26.2361 7.50601 26.2638 7.37197 26.3221 7.23209C26.3406 7.18838 26.3529 7.1505 26.359 7.11844C26.3713 7.04559 26.3529 6.99022 26.2945 6.84452C26.2914 6.83869 26.2914 6.83578 26.2884 6.82995C26.2546 6.91154 26.1655 7.19421 26.1317 7.2962ZM5.01867 6.36661C4.99409 6.34621 4.96952 6.32873 4.94188 6.31124C4.84359 6.25296 4.72074 6.21216 4.57024 6.19177C3.91295 7.23792 3.86995 7.99266 3.86995 7.99266C3.86995 7.99266 4.07881 7.49727 4.89581 6.5094C4.93574 6.46277 4.97567 6.41615 5.01867 6.36661V6.36661ZM30.1645 10.3356C30.1645 10.3356 30.0939 10.4492 29.9741 10.5512C30.0232 9.57501 28.9451 7.48562 28.9236 7.44482C28.9267 7.46522 29.0066 7.90524 28.9605 7.99266C28.7209 7.80616 28.1036 6.69007 27.9469 6.49774C27.8855 6.52106 27.8056 6.53563 27.7074 6.53563C27.5415 6.53563 27.3634 6.49774 27.2804 6.4686C27.2774 6.62888 27.2651 6.99314 27.2497 7.34283C27.2466 7.40111 27.2436 7.45647 27.2405 7.50893C27.2374 7.55847 27.2344 7.60801 27.2313 7.65463C27.2282 7.71 27.2221 7.78577 27.219 7.88776C27.2067 8.17042 27.1914 8.59879 27.1791 9.06796C27.4463 9.52255 27.6121 9.84019 27.6121 9.84019L27.4555 11.0087C27.4555 11.0087 28.0667 12.288 28.0575 12.4483C28.0452 12.6086 27.7074 12.6027 27.7074 12.6027H27.4647C27.4647 12.6027 27.3756 12.9524 27.2804 13.4828C27.5722 13.713 27.7319 13.9898 27.8179 14.2317C27.9285 14.5435 27.9346 14.8349 27.9224 15.0272C27.9162 15.1613 27.8886 15.2953 27.8364 15.4294C27.6981 15.7849 27.4186 16.0909 27.1514 16.3211C27.2589 16.8544 27.4401 17.2245 27.5261 17.58C27.5784 17.7927 27.5261 18.02 27.4186 18.2531C27.434 18.2444 27.4524 18.2386 27.4678 18.2298L27.649 18.1453L27.7166 18.326C27.7381 18.3813 27.7596 18.4367 27.7841 18.4892C28.0667 19.1011 28.466 19.2556 28.8745 19.2905C30.9999 14.3978 30.1645 10.3356 30.1645 10.3356V10.3356Z" fill="black"/>
<path d="M5.23067 5.52151L5.35967 5.50694L5.41189 5.62059C5.43339 5.6643 5.45796 5.70219 5.4856 5.74007C5.5071 5.7663 5.5286 5.79252 5.55317 5.81584C6.44389 4.97367 7.69396 4.06156 8.71368 3.47875C11.5916 2.10039 13.7171 1.77693 14.0211 1.78567C12.639 2.02462 10.836 2.8697 9.83475 3.36218C11.9602 2.42968 14.5586 2.21695 14.6999 2.20821C14.7306 2.35974 14.5955 2.43551 14.5955 2.43551L15.9254 2.35391L18.8556 2.57538L21.5953 3.82261C21.5953 3.82261 23.8436 5.30879 25.0629 6.29666C25.2718 6.46567 25.4837 6.68132 25.6895 6.92027C25.6434 6.72503 25.5974 6.48899 25.6004 6.30249L25.6035 6.14221L25.7724 6.13638C25.797 6.13638 25.8185 6.13347 25.8369 6.13347C25.9199 6.12764 26.0028 6.1189 26.0888 6.10724C26.1164 6.10433 26.1441 6.0985 26.1717 6.09559C26.4082 6.06062 26.6355 6.00525 26.7768 5.9528C26.8198 5.93823 26.8444 5.92366 26.8597 5.91491C26.8628 5.912 26.8659 5.912 26.8689 5.90909C26.9611 5.77504 27.1454 5.77504 27.2068 5.77504C27.3204 5.77504 27.4617 5.79544 27.6276 5.81584C27.6644 5.82166 27.7044 5.82749 27.7443 5.83041C27.7013 5.73715 27.6337 5.6439 27.5324 5.55357C27.0348 5.50111 27.001 5.55357 26.8352 5.16308C26.6693 4.7726 25.4745 3.84592 25.1827 3.59822C24.8909 3.34761 25.5114 3.47292 25.668 3.59822C25.453 3.38258 24.9739 3.21357 24.7466 3.21357C24.5193 3.21357 24.1231 2.97461 23.3706 2.51127C22.6181 2.04502 20.3452 1.25531 20.3452 1.25531C18.3611 0.564671 15.4309 0.136301 13.0321 0.736601C10.6333 1.3369 8.99318 2.17907 6.48075 4.13733C5.8726 4.61232 5.40267 5.0844 5.04639 5.52443H5.07403C5.19996 5.52443 5.2276 5.52151 5.23067 5.52151V5.52151Z" fill="black"/>
<path d="M21.2174 2.16154C21.371 2.23148 21.7027 2.36553 22.1511 2.57534C21.8471 2.42963 21.5369 2.28976 21.2174 2.16154ZM18.791 1.5321L20.6216 1.92259C20.5663 1.90219 18.7234 1.20864 17.587 1.25235C18.0446 1.46508 19.0859 1.72734 19.1166 1.73317L18.791 1.5321ZM15.2527 2.05663C14.1777 1.95755 12.2519 2.5258 11.8925 2.66567C12.9921 2.40049 15.2527 2.05663 15.2527 2.05663V2.05663ZM5.13846 6.4394C4.67468 6.95228 4.22317 7.52344 3.79932 8.15579C3.89453 7.70411 3.98975 7.43019 4.27846 7.04553C4.3491 6.94937 4.58868 6.66087 4.94496 6.27039C5.02175 6.31701 5.08625 6.37238 5.13846 6.4394Z" fill="#EEEEEE"/>
<path d="M15.5507 1.54376C15.5507 1.54376 15.3112 1.72443 14.5586 1.79437C13.9136 1.85265 9.39249 2.16446 5.62998 5.92362C5.55627 5.87116 5.49484 5.80997 5.44263 5.73712C6.57906 4.56566 8.35128 2.97749 9.94228 2.48501C11.0173 2.07704 13.1519 1.0542 15.2958 1.14162C14.6139 1.19407 12.1414 1.41846 9.03314 3.24558C9.55528 3.15524 11.0971 2.35679 11.0971 2.35679C11.0971 2.35679 13.9321 1.27567 15.5507 1.54376V1.54376ZM11.1094 1.3456C11.1094 1.3456 13.8461 0.759874 14.9579 0.765703C14.2945 0.66371 12.4916 0.809414 11.1094 1.3456ZM26.8352 5.92944C26.8045 5.94402 26.7645 5.95859 26.7154 5.97316C25.6865 4.90369 24.1354 3.55156 22.1482 2.57534C23.3061 3.12319 25.2288 4.17226 26.8352 5.92944V5.92944ZM28.162 7.7012C28.1252 7.64584 27.818 7.20581 27.2713 6.5822C27.2713 6.5414 27.2744 6.50352 27.2744 6.46855C27.2836 6.47146 27.2959 6.47438 27.3051 6.4802C27.6123 6.85612 27.901 7.26118 28.162 7.7012ZM26.0612 6.11012C26.0335 6.11303 26.0028 6.11595 25.9752 6.11886C25.582 5.69632 25.1367 5.28835 24.633 4.91826C24.8756 5.00277 25.4346 5.44279 26.0612 6.11012ZM28.5982 10.761C28.5982 10.761 28.2296 9.35057 27.2191 7.75074C27.2222 7.71286 27.2222 7.6808 27.2253 7.65166C27.2283 7.62544 27.2283 7.5963 27.2314 7.57007C27.8764 8.51714 28.4262 9.63032 28.5982 10.761V10.761Z" fill="#EEEEEE"/>
<path d="M26.3621 9.2982C26.1993 8.88731 25.5697 7.88195 25.2257 7.39239C25.5451 7.76539 26.0273 8.36569 26.3621 8.96308C26.3621 8.56676 26.359 8.14422 26.356 7.98978C26.2116 7.77705 26.2024 7.52061 26.3222 7.23212C26.3867 7.08058 26.3713 7.03979 26.2945 6.84454C26.2915 6.83872 26.2915 6.83289 26.2884 6.82997C26.2546 6.9174 26.1625 7.19715 26.1318 7.29914L25.9628 7.83824L25.7877 7.30205C25.7785 7.27583 25.5912 6.6901 25.5973 6.31127L25.6004 6.15099L25.6956 6.14517C25.6434 6.09563 25.5942 6.04609 25.542 5.99655C24.7005 5.2214 24.0831 4.61236 24.0831 4.61236C24.0831 4.61236 21.9853 2.861 18.1952 2.22573C18.1952 2.22573 19.4207 2.33356 19.9582 2.52006C19.565 2.35104 17.3935 1.98678 16.2325 2.02758C16.6625 2.04506 17.5532 2.1354 17.5532 2.1354C17.5532 2.1354 15.6643 2.15871 14.8104 2.21991C14.7398 2.34521 14.4388 2.47634 13.9566 2.59874C14.4112 2.54628 14.7029 2.59291 14.7029 2.59291C14.7029 2.59291 13.7477 2.68324 13.0044 2.84352C13.3761 2.78524 14.5279 2.61622 15.1329 2.70073C14.3067 2.7357 13.1887 2.85517 11.5946 3.39428C12.2212 3.26315 16.6625 1.86147 21.3526 4.18691C22.357 4.77264 23.518 5.74011 23.9265 6.0898C24.0186 6.13351 24.1077 6.18305 24.1937 6.22967L23.131 5.3234C23.1555 5.33797 23.9234 5.78091 24.1261 6.03734C24.1752 6.09854 24.2367 6.18888 24.3042 6.29087C24.4824 6.39578 24.6237 6.48903 24.682 6.52691C25.0598 6.77752 25.0383 7.10972 24.9585 7.28457C25.1489 7.50312 26.0918 8.83486 26.3621 9.30111C26.3621 9.30402 26.3652 9.30694 26.3652 9.30985C26.3652 9.30694 26.3652 9.30111 26.3621 9.2982V9.2982ZM15.0746 2.58708C15.4524 2.52006 18.2719 2.59582 18.8524 2.96882C18.8524 2.97174 16.3216 2.5288 15.0746 2.58708ZM15.4278 2.72987C17.9464 2.72404 19.0982 3.1087 19.2364 3.21069C18.0385 2.88432 15.4278 2.72987 15.4278 2.72987ZM28.0668 17.6295C27.8702 17.5159 27.6306 17.3148 27.5415 16.9331C27.7074 16.9884 27.99 17.0555 28.0023 16.6999C28.0145 16.3415 27.9992 16.2716 27.9992 16.2716C27.9992 16.2716 27.735 16.4493 27.6767 16.6329C27.6767 16.5513 27.6705 16.2016 27.6644 15.7412C27.3388 16.2395 26.7921 16.6038 26.5894 16.7262L26.5771 16.7961C26.6048 16.8457 26.6908 16.9884 26.9518 17.3061C27.0685 17.446 27.1607 17.5713 27.0962 17.6966C27.0624 17.7636 26.9918 17.8044 26.9119 17.8044C26.8996 17.8044 26.8781 17.8044 26.8474 17.7956L27.305 18.3027C27.345 18.2823 27.3941 18.259 27.4586 18.2298L27.6398 18.1453L27.7074 18.326C27.7135 18.3435 27.7197 18.361 27.7289 18.3785C27.7443 18.3581 27.7565 18.3377 27.7719 18.3173C28.2388 17.6528 28.2664 17.7461 28.0668 17.6295V17.6295ZM26.6293 19.8763C26.5925 19.8792 26.571 19.8821 26.5525 19.8821H26.5003C26.2546 19.8821 26.184 19.6636 26.1041 19.4159C26.0304 19.1886 25.926 18.9263 25.8062 18.6611C25.6372 18.8068 25.4345 18.9642 25.3485 18.9817C25.6342 18.9642 25.7601 19.0749 25.7601 19.0749L25.367 19.2352C25.5359 19.3255 25.6157 19.445 25.6495 19.6198L25.6925 19.8384L25.4591 19.8209C25.3516 19.8122 25.238 19.8093 25.1182 19.8093C24.98 19.8093 24.8417 19.8151 24.7097 19.8238C24.6544 19.8821 24.5991 19.9462 24.5407 20.0132C24.0739 20.5582 23.7637 20.8204 23.5763 20.4212C23.564 20.701 23.4719 21.1527 22.9712 21.5431C22.4706 21.9336 22.2402 22.225 21.8133 22.7467C21.801 22.5194 21.6935 22.3853 21.6935 22.3853C21.6935 22.3853 21.5185 22.9332 20.898 23.2216C20.2807 23.5101 20.1547 23.6209 20.1087 23.8948L19.9551 23.7404C19.9551 23.7404 19.4237 24.4893 19.2087 24.5126C18.9937 24.5388 18.8524 24.498 18.834 24.227C18.6252 24.3756 17.7467 24.8972 16.5796 24.8011C16.5427 24.8914 16.3001 25.4159 14.6323 25.3489C13.0874 25.2848 9.26343 25.5063 3.47377 20.5669C3.38777 20.599 3.2987 20.6281 3.2127 20.6514L3.19427 20.6573L3.17584 20.6602C3.12363 20.666 3.06834 20.666 3.01305 20.666C2.97313 20.666 2.93627 20.666 2.89634 20.6631C3.59048 21.5956 4.73613 22.802 6.42542 23.6209C6.01385 23.143 5.11084 22.6068 5.11084 22.6068C5.11084 22.6068 5.66677 22.5835 6.0077 22.9798C6.34863 23.3761 9.79785 25.9521 13.7078 26.3106C15.5537 26.43 17.1509 26.2756 17.3474 25.7161C17.7498 25.8093 19.0429 25.5704 19.7432 25.1974C19.8138 25.4451 20.0964 25.617 20.2868 25.4218C20.4742 25.2265 21.027 24.5592 21.027 24.5592L21.156 24.7486C21.1468 24.7341 21.0547 24.5388 21.5123 24.2649C21.9884 23.9793 22.8484 23.5509 22.8576 23.1983C22.9958 23.1459 23.0204 23.4577 23.0204 23.4577C23.0204 23.4577 23.4381 22.9594 23.779 22.7C24.12 22.4407 24.9277 21.4761 24.94 21.0769C25.0107 21.208 25.1151 21.2692 25.2195 21.1031C25.3209 20.937 25.6526 20.3134 25.6587 20.6252C25.6649 20.937 25.6802 21.1148 25.6802 21.1148C25.6802 21.1148 25.797 20.8496 26.0304 20.7476C26.2638 20.6456 26.4604 20.328 26.4604 20.328C26.4604 20.328 26.4973 20.599 26.4604 20.8321C26.6877 20.6631 26.7829 20.5145 26.8198 20.2697C26.832 20.1968 26.8812 20.0482 26.9549 19.8617C26.8198 19.8617 26.703 19.8705 26.6293 19.8763V19.8763ZM27.216 8.15588C27.2098 8.15005 27.2068 8.14131 27.2006 8.13548C27.1668 8.96016 27.1361 10.3997 27.1361 11.1049C27.1361 11.8772 27.5108 12.1627 27.5385 12.1831L28.0145 12.492H27.2098L27.1945 12.4804L27.2098 12.8854C27.2098 12.8854 27.1238 13.0311 26.9887 12.7572C26.9027 12.5824 26.8505 12.5153 26.8259 12.492C26.8105 12.4775 26.8044 12.4775 26.8044 12.4775C26.8044 12.4775 26.6416 12.4658 26.5372 12.4862C26.4973 12.4949 26.4665 12.5066 26.4573 12.5299C26.4358 12.6057 26.2915 13.1011 26.1164 12.6406C26.1072 12.7514 26.0857 12.8942 26.0734 13.0253C26.8013 13.1244 27.3265 13.4129 27.6337 13.8791C27.6245 13.2701 27.6153 12.8009 27.6153 12.8009C27.6153 12.8009 27.5446 12.559 27.6613 12.7077C27.778 12.8563 27.8794 12.9408 27.9562 12.7368C28.033 12.5328 28.1405 12.2968 28.1405 12.2968C28.1405 12.2968 27.6275 10.8514 27.8425 11.2361C28.0575 11.6207 28.6749 12.9787 28.6749 12.9787L28.7455 12.8534H28.9544C28.9544 12.8475 28.6135 9.62749 27.216 8.15588V8.15588ZM2.04248 19.2731C2.04555 19.2818 2.11927 19.4421 2.2667 19.6985L2.31891 19.6286L2.4172 19.6315H2.42641C2.29741 19.5149 2.17148 19.3955 2.04248 19.2731V19.2731Z" fill="#EEEEEE"/>
<path d="M28.7456 11.2098C28.7886 11.3467 28.9637 12.5211 29.0036 12.8475H29.108C29.108 12.8475 28.9852 11.7314 28.7456 11.2098ZM9.15601 3.70312L11.7637 2.49669C11.7114 2.51126 10.0744 3.0154 9.15601 3.70312ZM20.032 2.38305C19.4422 2.11204 16.7148 1.43889 15.7197 1.87308C15.7197 1.87308 18.0877 1.82063 20.032 2.38305Z" fill="#EEEEEE"/>
<path d="M22.4645 7.32817C22.4922 7.5409 22.4768 10.9154 22.4768 10.9154C22.4768 10.9154 22.5474 11.5623 21.2451 12.151C21.2451 12.1743 21.2175 12.253 21.2175 12.253H23.5057C23.5057 12.253 23.5518 12.0869 23.7668 11.9149C23.7207 11.9208 23.6716 11.9266 23.6194 11.9266C23.1863 11.9266 22.5935 11.6672 22.6918 10.962C22.7993 10.1694 23.0051 7.9751 23.0051 7.9751H23.1924C23.1924 7.9751 25.2626 9.45253 26.2669 11.6206C26.399 11.6439 26.6324 11.9499 26.6017 12.3171C26.6539 12.32 26.7031 12.3229 26.7492 12.3229C26.8382 12.3229 26.9027 12.3171 26.9027 12.3171L27.0409 12.1539L27.1546 12.2355L27.2744 12.3229H27.4372C27.4372 12.3229 26.9611 11.9994 26.9611 11.1077C26.9611 10.5599 26.9826 9.57784 27.0041 8.7823C27.0133 8.42678 27.0256 8.10914 27.0379 7.88185C27.044 7.78568 27.0471 7.707 27.0502 7.64581C27.0532 7.59918 27.0563 7.55256 27.0594 7.50302C27.0624 7.45056 27.0655 7.39228 27.0686 7.33691C27.087 6.96391 27.0993 6.55594 27.1024 6.38984C27.1024 6.3403 27.1054 6.31116 27.1054 6.31116C27.1054 6.31116 27.1269 6.30242 27.1607 6.2995C27.1792 6.29659 27.2037 6.29367 27.2314 6.29367C27.2652 6.29367 27.3051 6.2995 27.3389 6.31407C27.3972 6.33739 27.56 6.37235 27.7074 6.37235C27.7689 6.37235 27.8303 6.36653 27.8794 6.34904C27.9224 6.33447 27.9562 6.30825 27.9747 6.27036C28.0453 6.10426 28.1835 6.06929 27.818 6.01975C27.8088 6.01975 27.7996 6.01684 27.7904 6.01684C27.5569 5.9877 27.3573 5.95273 27.2191 5.95273C27.1208 5.95273 27.0563 5.97021 27.0287 6.01684C27.0194 6.03432 26.9949 6.05181 26.9642 6.06929C26.9365 6.08386 26.8997 6.10135 26.8536 6.11883C26.7 6.17711 26.4635 6.23248 26.2086 6.27036C26.1809 6.27619 26.1502 6.2791 26.1226 6.28202C26.0335 6.29368 25.9475 6.30242 25.8584 6.30825C25.8339 6.31116 25.8093 6.31116 25.7847 6.31407C25.7786 6.6725 25.969 7.25532 25.969 7.25532C25.969 7.25532 26.0857 6.88523 26.1318 6.7745C26.1441 6.74827 26.1594 6.7133 26.1809 6.67833C26.2178 6.61714 26.2669 6.55594 26.3192 6.55594C26.3591 6.55594 26.399 6.59091 26.4328 6.68708C26.5157 6.90854 26.571 7.00762 26.5464 7.15333C26.5403 7.19704 26.5249 7.24658 26.5004 7.30195C26.3959 7.54964 26.4021 7.76237 26.5464 7.94304V8.05961C26.5495 8.31604 26.5526 8.90469 26.5526 9.32723V9.80222C26.5526 9.80222 25.9874 9.41174 25.5759 8.67156C25.1643 7.93139 24.5439 7.27572 24.5439 7.27572L24.7896 7.25532C24.7896 7.25532 24.8234 7.19704 24.8326 7.11253C24.8449 6.99597 24.8142 6.82404 24.5899 6.67542C24.5684 6.66085 24.55 6.64919 24.5285 6.63462C24.1753 6.40441 23.6071 6.08386 23.3583 6.08386C23.3245 6.08386 23.2969 6.08969 23.2784 6.10135C23.0942 6.21208 23.0143 6.26745 22.5352 6.3199C22.056 6.37235 21.2544 6.42481 21.2544 6.42481L21.2636 6.62879C21.2482 6.62005 22.4369 7.11544 22.4645 7.32817V7.32817ZM1.58489 12.3666C1.20096 12.4686 0.675742 12.5939 0.58667 12.6551C0.58667 12.6551 0.749456 12.7338 0.80167 12.8212C0.906099 12.8125 1.28389 12.8095 1.74153 12.8095C2.65989 12.8095 3.89768 12.8212 3.89768 12.8212C3.89768 12.8212 4.06046 12.5968 4.31539 12.5968C4.44439 12.5968 4.59489 12.6522 4.76382 12.8212C4.96039 12.6609 5.71904 12.3783 6.4439 12.2704C6.46847 11.9295 7.10119 10.8134 7.26397 10.5803C7.10733 10.4841 7.10119 10.3472 7.10119 10.3472C7.10119 10.3472 7.63869 10.149 7.6264 9.68274C7.61412 9.21649 7.46976 8.1004 7.17183 7.2932C6.8739 6.48892 6.96911 6.54429 6.47154 6.39567C6.13368 6.29367 5.78047 6.20625 5.52554 6.01975C5.48868 5.99353 5.4549 5.96438 5.42111 5.93233C5.3904 5.90319 5.36275 5.87113 5.33511 5.83617C5.30132 5.78954 5.27061 5.74 5.24297 5.68463C5.2184 5.68755 5.15697 5.68755 5.06482 5.68755H4.90511C4.11575 5.6788 2.16539 5.60304 0.912242 5.44568C0.912242 5.44568 0.875385 5.71669 1.42517 6.38693C1.46817 6.12757 1.60946 5.99061 1.60946 5.99061C1.60946 5.99061 1.93196 6.31407 1.93196 7.83522C1.94424 9.35928 1.96882 12.2646 1.58489 12.3666V12.3666ZM3.55061 6.84152C3.56903 6.45104 3.49532 6.03432 3.89154 6.01684C3.99289 6.01101 4.12804 6.00227 4.27546 6.00227C4.40139 6.00227 4.53961 6.01101 4.67168 6.03432C4.80068 6.05763 4.92661 6.09843 5.03718 6.16837C5.07097 6.18877 5.10475 6.21208 5.13547 6.23831C5.17232 6.26745 5.20304 6.2995 5.23375 6.33739C5.29825 6.41315 5.35047 6.50932 5.38732 6.62297C5.62075 7.34566 5.62075 7.90807 5.85418 8.17034C6.08761 8.43552 6.24118 8.63076 6.17668 9.26895H5.96168C5.96168 9.26895 5.87261 11.8042 4.62561 11.9149C4.47204 11.9178 4.33689 11.9295 4.22325 11.9295C4.04204 11.9295 3.91918 11.9033 3.86389 11.7721C3.77482 11.5594 3.38782 10.4958 3.39703 9.78182C3.40625 9.06205 3.53218 7.23201 3.55061 6.84152V6.84152ZM8.47412 9.37677L8.38505 9.49624C8.38505 9.49624 8.39733 11.2709 8.38505 11.6701C8.37276 12.0694 8.32976 11.8712 7.84754 12.1597C7.36226 12.4482 8.32669 12.3724 8.32669 12.3724L8.2714 12.454H9.46926L9.43548 12.5589C9.87162 12.2063 10.6978 12.2879 11.0142 12.2704C11.3306 12.253 11.5118 12.1102 11.5118 12.1102L11.3736 12.0694C11.3736 12.0694 11.3736 11.9266 11.3613 11.7751C11.349 11.6206 11.4104 11.5303 11.4565 11.3787C11.5056 11.2243 11.521 10.9533 11.5056 10.8047C11.4872 10.656 11.3981 10.8338 11.3736 11.1689C11.349 11.504 10.9958 11.7634 10.7531 11.9674C10.5074 12.1714 10.575 11.9062 10.6211 11.7867C10.6702 11.6672 10.9374 11.2185 10.9374 11.2185C10.9374 11.2185 10.3876 11.8013 10.2801 11.9208C10.1726 12.0402 10.0958 12.0402 9.80098 12.0461C9.31569 12.0577 9.38326 11.1718 9.38326 11.1718L9.21126 11.303C9.21126 11.303 9.20512 10.7814 9.2174 10.5191C10.145 10.0091 10.2801 11.2797 10.3323 11.4574C10.3139 11.0757 10.2525 10.9125 10.1788 10.6065C10.1081 10.3005 10.234 10.1228 10.234 10.1228L10.403 10.3268C10.403 10.3268 10.3569 10.1665 10.4214 10.012C10.5289 9.77308 10.403 9.42631 10.3938 9.26312C10.3846 9.10284 10.1788 9.17861 10.1788 9.17861C10.1788 9.17861 10.1327 9.2806 10.1603 9.67983C10.188 10.0791 9.95455 10.1228 9.61362 10.1811C9.27269 10.2393 9.09455 10.2335 9.03926 10.1228C9.30033 10.0791 9.32491 9.80805 9.32491 9.80805C9.32491 9.80805 9.32491 9.43505 9.58598 9.19609C9.90848 8.91634 9.58598 8.75315 9.58598 8.75315H10.5535C10.5535 8.75315 10.6886 9.04165 10.8053 9.17861C10.8514 9.02416 10.9405 8.95714 10.9405 8.95714C10.9405 8.95714 10.9497 9.2806 10.9681 9.58658C11.1217 8.98337 11.3613 8.96588 11.3613 8.96588C11.3613 8.96588 11.3889 8.42095 11.3613 7.98675C11.3336 7.55256 11.0572 7.9343 10.8514 8.35975C9.69348 8.20531 7.7124 8.31604 7.7124 8.31604C7.7124 8.31604 7.94583 8.48506 8.2714 8.72401C8.59083 8.9688 8.47412 9.37677 8.47412 9.37677V9.37677ZM12.1598 8.61911C12.5192 8.66282 12.7434 8.65408 12.7342 9.07079C12.725 9.4875 12.725 11.5565 12.725 11.5565C12.725 11.5565 12.7803 11.9295 12.4916 12.0169C12.2059 12.1014 11.994 12.1772 11.994 12.1772L12.0431 12.3316H13.7293L13.7785 12.2151C13.7785 12.2151 13.1089 12.2879 13.0383 11.2214C12.9676 10.1548 13.0198 9.16695 13.0198 9.16695L14.0733 11.3554C14.0733 11.3554 14.3129 11.1689 14.3191 10.9533C14.3313 11.1165 14.3252 11.2534 14.3252 11.2534H14.4204L14.3651 11.3846L14.3774 12.1888C14.3774 12.1888 14.4358 12.693 14.6538 12.3258C14.8688 11.9616 15.4125 10.8192 15.6398 10.015C15.8671 9.21067 16.1435 9.12907 16.0821 9.87216C16.1373 9.80514 16.2203 9.74685 16.2203 9.74685L16.1711 10.3151L16.0513 10.4521L16.3308 10.6444C16.3308 10.6444 16.0728 11.2068 16.3063 11.8129C16.0206 11.9499 15.1698 12.3579 15.6551 12.3229C16.1404 12.2879 17.5502 12.2559 17.5502 12.2559V11.8974C17.5502 11.8974 17.455 12.0344 17.0711 12.0519C17.0281 11.7576 17.0404 11.6264 17.0404 11.6264L16.8714 11.6206C16.8714 11.6206 16.8284 8.91634 17.2062 8.69487C17.584 8.4734 18.0324 8.24319 17.4673 8.32187C16.9021 8.39764 16.1773 8.49963 15.3142 8.35684C15.3234 8.55208 15.6367 8.62785 15.6367 8.62785C15.6367 8.62785 15.7718 8.69487 15.7258 8.8668C15.6797 9.03582 15.2681 10.6444 14.8903 11.029C14.703 10.7726 14.1901 9.75268 14.1716 9.34471C14.1532 8.93674 14.1532 8.43552 13.7601 8.3481C13.6618 8.35684 13.5082 8.40055 13.5082 8.58705C13.3116 8.55208 12.6574 8.09457 12.6574 8.09457V8.39181L11.6807 8.42678C11.6838 8.42386 11.8005 8.57831 12.1598 8.61911V8.61911Z" fill="#EEEEEE"/>
<path d="M17.5501 11.1049C17.7375 11.1981 17.8204 11.4283 17.9002 11.6993C17.9801 11.9703 18.2872 11.9878 18.2872 11.9878L20.1424 12.3871C20.1424 12.3871 20.3942 12.2501 21.0392 11.8771C21.6842 11.5041 21.7641 10.7027 21.7825 10.184C21.7549 9.15534 20.7413 8.45596 20.1854 8.25198C19.6295 8.04799 19.2087 8.14999 18.3026 8.68618C17.3965 9.22237 17.5501 11.1049 17.5501 11.1049V11.1049ZM18.6957 9.46132C19.009 8.58418 19.3592 8.45596 19.565 8.45014C19.7707 8.44139 20.1301 8.43265 20.3727 8.98632C20.6154 9.54 20.6154 9.86346 20.6584 9.96545C20.7014 10.0674 20.8642 10.4842 20.7045 10.8251C20.5417 11.1661 20.1577 11.8975 20.1577 11.8975C20.1577 11.8975 19.1995 11.9733 19.0551 11.8217C18.9107 11.6673 18.3825 10.3385 18.6957 9.46132V9.46132ZM2.0977 14.5172C2.15299 14.4356 2.36799 14.3074 2.66592 14.3074C2.89935 14.3074 3.18192 14.3861 3.47985 14.628C4.16171 15.1816 4.73607 16.1928 4.73607 16.1928L4.88964 16.2016C4.88964 16.2016 5.27664 14.73 5.26742 14.1413C5.26128 13.7071 5.1845 13.3545 5.01249 13.3545C4.95414 13.3545 4.88349 13.3982 4.80057 13.4944C4.60399 13.8266 4.32756 14.491 4.32756 14.491C4.32756 14.491 3.33549 13.984 2.36799 13.984C2.23592 13.984 2.10384 13.9927 1.97792 14.016C1.5387 14.1093 0.138126 14.8757 0.838413 16.595C1.30527 17.3934 3.53821 18.3988 3.53821 18.3988C3.53821 18.3988 4.12178 18.6115 4.04806 19.2322C4.01121 19.4624 3.52899 19.9811 3.52899 19.9811C3.52899 19.9811 3.01913 19.8646 2.6352 19.8209C2.55535 19.8121 2.48163 19.8063 2.41713 19.8034C2.40177 19.8267 2.38335 19.8471 2.36799 19.8675C2.28813 19.9695 2.21749 20.0336 2.21749 20.0336H2.19906C2.10384 20.0336 1.64006 19.9986 1.32063 19.3692C0.961271 18.664 0.826128 17.5828 0.0551974 17.5071C-8.84817e-05 18.291 0.171912 18.8417 0.601913 19.0807C0.601913 19.0807 0.359269 20.3833 0.377698 20.6368C0.448341 20.7971 0.601913 20.8408 0.601913 20.8408L0.952057 19.9607H1.5172V20.1618C1.5172 20.1618 2.16835 20.4212 2.77035 20.4853C2.85635 20.494 2.93928 20.4998 3.01913 20.4998C3.06828 20.4998 3.11742 20.4969 3.16656 20.494C3.21878 20.4794 3.27406 20.462 3.32935 20.4416C3.58735 20.3541 3.84842 20.2376 3.84842 20.2376L4.13406 20.4678L5.26435 19.2847V18.2473C5.26435 18.2473 5.17528 17.6353 4.94185 17.3963C4.87735 17.4138 4.81592 17.4284 4.74835 17.4284C4.61935 17.4284 4.47806 17.3701 4.28764 17.1574C4.04806 16.8864 3.95899 16.7115 3.77471 16.7115C3.73785 16.7115 3.70099 16.7174 3.65492 16.7319C3.47985 16.6766 1.97484 16.1025 1.61549 15.0563C1.93492 14.7883 1.99942 14.66 2.0977 14.5172V14.5172ZM6.59121 17.3497C6.55436 17.5887 6.31171 17.8509 5.937 17.9121C5.56228 17.9733 5.55921 17.9704 5.55921 17.9704L5.50392 18.1657L9.70872 18.0986L9.96058 17.5275L9.69029 17.6295C9.69029 17.6295 9.85308 17.035 9.79779 16.4114C9.45686 16.3181 9.32172 17.3381 9.2695 17.4663C9.21422 17.5945 8.86715 18.2065 8.15765 17.8393C7.44814 17.4721 7.24236 16.9971 7.42357 16.0704C7.60479 15.1438 7.73379 14.4531 7.73379 14.4531C7.73379 14.4531 8.33886 14.3948 8.50165 13.7975C8.22214 13.6372 7.59557 13.8149 7.46043 14.0102C7.19936 14.0772 6.19193 14.0189 6.19193 14.0189C6.19193 14.0189 5.99843 13.8149 5.55614 13.8266C5.56842 14.0714 5.71278 14.2054 5.93393 14.2462C6.15507 14.287 6.496 14.5289 6.496 14.5289L6.44686 14.5959L6.50214 16.7145L6.63728 16.6299V15.5226L6.76321 15.6508V17.0117C6.76014 17.0175 6.625 17.1108 6.59121 17.3497V17.3497ZM14.1592 18.0316L14.236 17.9792L13.7384 17.2506L13.8152 17.2302C13.8152 17.2302 13.6125 16.8252 13.2317 16.7145C13.29 16.4289 13.2931 16.356 13.2931 16.356L13.3422 16.4201L13.3514 16.1433C13.3514 16.1433 12.9399 15.7907 12.9153 15.4964C12.8938 15.202 12.8784 15.0126 13.0535 14.7096C12.8385 14.7125 12.5836 14.6659 12.5344 14.2666C12.4853 13.8674 12.4085 13.5352 12 13.5352C12.0952 13.6343 12.2642 13.8936 12.0123 14.389C11.7604 14.8873 11.7789 14.9544 11.8096 15.0563C11.8403 15.1583 11.8956 15.1496 11.7389 15.4264C11.5823 15.7033 11.5424 15.8781 11.4932 16.1083C11.4441 16.3385 11.4042 16.7378 10.6547 16.7261C10.6947 16.8922 10.839 17.1049 10.839 17.1049L11.1001 16.9388C11.1001 16.9388 11.2168 17.7985 10.5749 17.8364C10.3046 17.8451 10.1234 17.7985 9.84386 18.1627H10.1387L10.2677 17.9879L10.5994 18.2356C10.5994 18.2356 12.1474 18.2385 11.6744 17.8626C11.2014 17.4867 11.2629 17.475 11.3888 17.2273C11.5147 16.9796 11.527 16.9097 11.527 16.9097C11.527 16.9097 12.989 16.9738 12.7126 17.5741C12.4362 18.1744 12.2826 18.6173 12.6634 18.4134C13.0443 18.2094 13.1088 18.1831 13.1303 18.3201L13.1518 18.4571C13.1518 18.4571 13.3146 18.4862 13.4159 18.4308C13.5204 18.3755 13.6002 18.291 13.7968 18.3638C13.9934 18.4367 14.1009 18.5561 14.5401 18.4017C14.3159 18.2123 14.1592 18.0316 14.1592 18.0316ZM12.4024 16.6212H11.6007C11.6314 16.0355 12.0307 15.5954 12.0307 15.5954C12.4116 15.9277 12.4024 16.6212 12.4024 16.6212ZM15.2895 17.8393C14.7213 18.0141 14.6906 18.0083 14.6261 18.2356C14.6261 18.2356 15.7441 18.1511 15.9407 18.3609C15.9652 18.2647 15.9837 18.2181 15.9837 18.2181L17.2798 18.1715L17.3167 18.2647L17.5255 18.3026C17.5255 18.3026 17.5962 17.9325 16.7116 17.6324C16.6993 17.1341 16.7177 16.2599 16.7177 16.2599L17.6023 14.5464C17.6023 14.5464 17.8818 14.2754 17.7989 14.5056C17.9248 14.3366 18.2903 14.1413 18.2903 14.1413V14.0102L17.7344 14.0452L17.8787 13.9723H16.7669C16.7669 13.9723 16.6102 14.0393 16.5396 14.2375C16.4689 14.4356 16.5027 14.4706 16.6717 14.3978C16.8406 14.3249 16.7792 14.2783 16.9942 14.3016C16.9819 14.4386 16.9389 14.5726 16.9389 14.5726H17.028C17.028 14.5726 16.6809 15.6887 16.3092 15.7819C16.2847 15.6508 16.4567 15.5197 16.4567 15.5197C16.4567 15.5197 16.3154 15.5022 16.1741 15.6566C16.0666 15.4585 15.6243 14.4881 15.8086 14.2783L15.9929 14.0685L15.5629 14.0277C15.5629 14.0277 15.5752 13.949 15.4738 13.8907C15.4185 13.9082 15.3724 14.0044 15.3724 14.0044L14.7797 14.016C14.7797 14.016 14.2606 13.8295 14.1162 13.6022C14.0917 13.8004 14.279 13.949 14.279 13.949L13.7661 13.9665C13.7661 13.9665 13.8029 14.2375 14.0364 14.3016C14.2698 14.3628 14.4725 14.3424 14.6752 14.6979C14.8779 15.0563 16.0389 16.5629 15.7502 17.3585C15.6182 17.3177 15.5936 17.2914 15.5936 17.2914C15.5936 17.2914 15.8577 17.6644 15.2895 17.8393V17.8393ZM22.4644 17.4197C22.5289 17.035 22.578 16.8631 22.578 16.7494C22.578 16.6358 22.5227 16.5338 22.4705 16.8019C22.4152 17.0671 22.3385 17.5275 21.8839 17.9151C21.7272 17.9675 21.4416 18.0695 21.6382 17.7344C21.8347 17.3993 21.9023 17.3381 21.8777 17.1778C21.7457 17.3264 21.1836 18.0637 20.944 18.0229C20.7045 17.9821 20.2745 17.7723 20.3635 17.0875C20.2376 17.172 20.1424 17.2302 20.1424 17.2302L20.1608 16.3677C20.1608 16.3677 20.7935 16.1404 20.987 16.4638C21.1775 16.7873 21.3157 17.3993 21.3157 17.3993C21.3157 17.3993 21.3587 16.9563 21.1836 16.4988C21.0116 16.0384 21.202 15.8519 21.328 16.1579C21.4539 15.9976 21.4969 15.3682 21.4232 14.9718C21.2788 14.9048 21.159 15.0185 21.159 15.0185C21.159 15.0185 21.457 15.8927 20.8365 16.0326C20.2161 16.1754 20.0103 15.9859 20.0103 15.9859L20.2069 15.9451L20.4219 15.1962L20.7567 14.8728L20.6092 14.5202H21.5982C21.5982 14.5202 21.5614 14.73 21.8194 14.9631C21.8624 14.7941 21.9453 14.7475 21.9453 14.7475L21.9945 15.4177C21.9945 15.4177 21.976 14.8961 22.4429 14.7271C22.4306 14.4648 22.406 13.6663 22.406 13.6663C22.406 13.6663 22.3047 13.4099 22.1357 13.7071C21.9668 14.0014 21.9207 14.0918 21.9207 14.0918L18.6435 14.0131C18.6435 14.0131 18.6128 14.2404 18.9537 14.3657C19.2947 14.491 19.5926 14.8378 19.3469 15.272C19.3039 15.5547 19.307 17.8101 19.307 17.8101C19.307 17.8101 19.1964 18.0404 18.8708 18.0666C18.5452 18.0928 18.6405 18.3085 18.6405 18.3085C18.6405 18.3085 19.998 18.5416 20.4096 18.3638C20.4096 18.4163 20.4526 18.5561 20.4526 18.5561C20.4526 18.5561 20.4465 18.3755 20.8427 18.3055C21.2389 18.2356 22.0927 18.2443 22.5412 18.1074C22.3845 18.0724 22.3968 17.8072 22.4644 17.4197V17.4197Z" fill="#EEEEEE"/>
<path d="M29.028 19.4624C28.9512 19.4595 28.8714 19.4566 28.7946 19.4478C28.3584 19.3983 27.9162 19.206 27.6121 18.5532C27.5875 18.4979 27.5629 18.4425 27.5384 18.3813C27.3111 18.4891 27.2619 18.5182 27.2619 18.5182L26.4972 17.6673L26.5156 17.4284C26.5156 17.4284 26.8227 17.6324 26.9149 17.6324C26.964 17.6324 26.9548 17.577 26.8135 17.4109C26.4081 16.9243 26.3958 16.8164 26.3958 16.8164L26.4265 16.6241C26.4265 16.6241 26.7705 16.4318 27.1053 16.1229C27.3264 15.9189 27.5476 15.6625 27.6582 15.374C27.7012 15.2603 27.7288 15.1438 27.7349 15.0214C27.7472 14.8407 27.7411 14.5697 27.6397 14.2899C27.566 14.083 27.4432 13.8703 27.2374 13.6867C26.9855 13.4594 26.6139 13.2758 26.0641 13.1971C26.0364 13.1942 26.0057 13.1884 25.975 13.1855C25.3116 13.1097 24.4669 12.9815 24.3257 12.8795C24.3011 13.0165 24.427 13.235 24.0953 13.235C24.0554 13.235 24.0093 13.2321 23.954 13.2263C23.7421 13.1826 23.5179 13.1039 23.3858 13.0398C23.266 12.9815 22.6333 12.8562 22.1204 12.8562C22.0589 12.8562 21.9975 12.8591 21.9391 12.862C21.9606 13.101 22.6794 13.2758 23.0387 13.2991C23.1339 13.4478 23.4564 17.4226 23.4319 17.9005C23.4073 18.3784 23.2691 18.8738 23.2691 18.8738V19.4537C23.2691 19.4537 23.223 19.4478 23.1462 19.4478C22.9189 19.4478 22.4214 19.4945 22.1173 19.8791C22.1173 19.8791 22.5749 19.9287 22.965 19.9287C23.1585 19.9287 23.3367 19.917 23.4288 19.8791C23.6407 19.7946 24.255 19.6781 24.8847 19.6547C24.9645 19.6518 25.0444 19.6489 25.1242 19.6489C25.244 19.6489 25.3638 19.6518 25.4805 19.6606C25.459 19.5411 25.4222 19.4449 25.2072 19.3604C25.0812 19.3109 24.8969 19.2672 24.6174 19.2235C24.6543 18.9117 24.6451 16.7902 24.6451 16.7902H25.0444C25.0444 16.7902 25.5542 17.6819 25.9474 18.5503C26.0794 18.8417 26.1962 19.1273 26.276 19.3779C26.3129 19.4974 26.3436 19.5761 26.3712 19.6285C26.4142 19.713 26.4511 19.7247 26.5002 19.7247H26.5494C26.5924 19.7247 26.7889 19.7014 27.0224 19.7014H27.0347C27.4278 19.7014 27.9131 19.7655 27.9469 20.0948C28.0329 20.1093 28.1097 20.1122 28.1742 20.1122C28.3001 20.1122 28.3738 20.0948 28.3738 20.0948L28.5335 19.8296H28.6226L29.5102 19.8179C29.5133 19.8034 29.5717 19.4741 29.028 19.4624V19.4624ZM25.3054 16.3443C25.1181 16.3443 24.9399 16.3094 24.7772 16.2424C24.2212 16.0092 24.5192 15.4468 24.7464 15.068C24.9737 14.6892 24.8355 14.3599 24.7464 14.0918C24.6574 13.8266 24.685 13.6226 24.685 13.6226H24.7157C24.9461 13.6226 25.7784 13.7741 26.1286 13.8703C26.4972 13.9723 26.4081 14.118 26.4572 14.2958C26.5064 14.4735 26.7306 14.9835 26.7306 14.9835C26.7306 14.9835 26.6599 15.2661 26.6753 15.7003C26.2576 16.1374 25.76 16.3443 25.3054 16.3443ZM8.11462 20.0569H7.77983L7.50647 20.4386C7.47883 20.4794 7.45119 20.5202 7.42354 20.5639H7.41433V20.0569H7.14404V21.205H7.41433V20.832L7.51876 20.7125L7.81362 21.2079H8.13305L7.71226 20.5494L8.11462 20.0569ZM8.25897 20.0569H8.53233V21.205H8.25897V20.0569ZM9.66876 20.0569L9.53976 20.4386C9.49983 20.5668 9.45991 20.7184 9.42612 20.8495H9.41998C9.39233 20.7155 9.35548 20.5727 9.31862 20.4386L9.19883 20.0569H8.83333L8.75655 21.205H9.0084L9.0299 20.7679C9.03912 20.6251 9.04526 20.4474 9.0514 20.2929H9.05448C9.08212 20.4415 9.12512 20.6047 9.16505 20.7417L9.29405 21.1846H9.50598L9.65341 20.7359C9.69948 20.6018 9.75169 20.4386 9.78855 20.2929H9.79469C9.79469 20.459 9.80083 20.6251 9.80698 20.765L9.82541 21.205H10.0926L10.025 20.0569H9.66876ZM10.5933 20.7184H11.0356V20.5086H10.5933V20.2696H11.0632V20.0569H10.3168V21.205H11.0878V20.9923H10.5933V20.7184ZM11.2076 20.2754H11.5331V21.205H11.8065V20.2754H12.1351V20.0569H11.2076V20.2754ZM12.7494 20.5231C12.5928 20.4678 12.5252 20.4357 12.5252 20.3629C12.5252 20.3046 12.5836 20.2521 12.7003 20.2521C12.8201 20.2521 12.9061 20.2842 12.9521 20.3075L13.0136 20.0977C12.9429 20.0656 12.8416 20.0394 12.7064 20.0394C12.4208 20.0394 12.2488 20.188 12.2488 20.3862C12.2488 20.5523 12.3808 20.6572 12.5805 20.7242C12.7248 20.7737 12.7832 20.8145 12.7832 20.8845C12.7832 20.9602 12.7156 21.0098 12.5928 21.0098C12.4761 21.0098 12.3624 20.9748 12.2887 20.9369L12.2334 21.1526C12.301 21.1875 12.4392 21.2225 12.5774 21.2225C12.9091 21.2225 13.0658 21.0593 13.0658 20.867C13.0627 20.7038 12.9644 20.5989 12.7494 20.5231V20.5231ZM13.978 20.7184C13.978 20.9194 13.8981 21.0156 13.7568 21.0156C13.6156 21.0156 13.5388 20.9165 13.5388 20.7184V20.0569H13.2654V20.698C13.2654 21.0652 13.4436 21.2225 13.7507 21.2225C14.0671 21.2225 14.2544 21.0535 14.2544 20.7009V20.0569H13.9811V20.7184H13.978ZM15.4523 20.5552C15.4523 20.6922 15.4553 20.8175 15.4707 20.9369H15.4676C15.4246 20.8349 15.3663 20.7184 15.311 20.6222L15.1113 20.2871H14.8564V21.205H15.0561V20.9282C15.0561 20.7796 15.053 20.6484 15.0468 20.529H15.0499C15.096 20.6368 15.1605 20.7563 15.2188 20.8524L15.4246 21.205H15.655V20.2871H15.4553V20.5552H15.4523ZM16.2816 20.2725C15.9959 20.2725 15.8116 20.4794 15.8116 20.7533C15.8116 21.0156 15.9806 21.2196 16.2662 21.2196C16.5488 21.2196 16.7423 21.036 16.7423 20.7359C16.7392 20.4823 16.5764 20.2725 16.2816 20.2725ZM16.2754 21.0535C16.128 21.0535 16.0389 20.9282 16.0389 20.7475C16.0389 20.5698 16.1249 20.4357 16.2724 20.4357C16.4229 20.4357 16.5058 20.5785 16.5058 20.7417C16.5089 20.9224 16.4228 21.0535 16.2754 21.0535ZM17.8664 20.0569L17.7436 20.3337C17.7067 20.4153 17.6791 20.4823 17.6514 20.5523H17.6484C17.6176 20.4765 17.5931 20.4153 17.5562 20.3337L17.4334 20.0569H17.1201L17.5009 20.7329V21.2021H17.7743V20.7242L18.1736 20.054H17.8664V20.0569ZM18.4346 20.0569L18.0661 21.205H18.3486L18.4346 20.9107H18.7817L18.8739 21.205H19.1687L18.794 20.0569H18.4346ZM18.4746 20.7155L18.5452 20.4707C18.5636 20.4037 18.5821 20.3162 18.6005 20.2492H18.6036C18.622 20.3162 18.6435 20.4037 18.665 20.4707L18.7418 20.7155H18.4746ZM19.3438 20.0569H19.6171V21.205H19.3438V20.0569ZM20.5263 20.5872V20.5843C20.6614 20.5377 20.7259 20.4415 20.7259 20.3395C20.7259 20.2346 20.6645 20.1589 20.5816 20.1152C20.4925 20.0656 20.3911 20.0511 20.2253 20.0511C20.0901 20.0511 19.9427 20.0627 19.8721 20.0744V21.1992C19.9335 21.2079 20.0349 21.2167 20.1669 21.2167C20.4065 21.2167 20.5539 21.1788 20.643 21.1118C20.7198 21.0535 20.7689 20.9719 20.7689 20.867C20.7689 20.7213 20.6645 20.6222 20.5263 20.5872V20.5872ZM20.1424 20.2434C20.1669 20.2405 20.2007 20.2376 20.2591 20.2376C20.3819 20.2376 20.4526 20.2842 20.4526 20.3716C20.4526 20.4561 20.3758 20.5115 20.2314 20.5115H20.1424V20.2434ZM20.2468 21.0244C20.2007 21.0244 20.1669 21.0244 20.1424 21.0214V20.698H20.2345C20.3696 20.698 20.4802 20.7446 20.4802 20.8583C20.4802 20.9806 20.3727 21.0244 20.2468 21.0244ZM21.2419 20.0569L20.8734 21.205H21.1559L21.2419 20.9107H21.589L21.6811 21.205H21.976L21.6013 20.0569H21.2419ZM21.2819 20.7155L21.3525 20.4707C21.3709 20.4037 21.3894 20.3162 21.4078 20.2492H21.4109C21.4293 20.3162 21.4508 20.4037 21.4723 20.4707L21.5491 20.7155H21.2819Z" fill="#EEEEEE"/>
</g>
<defs>
<clipPath id="clip0_3806_249">
<rect width="31" height="28" fill="white"/>
</clipPath>
</defs>
</svg>
