<svg width="40" height="30" viewBox="0 0 40 30" fill="none" xmlns="http://www.w3.org/2000/svg">
<g clip-path="url(#clip0_3806_305)">
<path fill-rule="evenodd" clip-rule="evenodd" d="M33.3949 11.2346C33.6248 11.1885 33.8707 11.2568 33.9732 11.4412C34.0574 11.5898 34.0711 11.8118 34.0643 11.974C34.062 12.0509 34.0939 12.1346 34.1007 12.2148C34.1075 12.2985 34.0847 12.3753 34.087 12.4539C34.0916 12.5137 34.0984 12.5734 34.1075 12.6332C34.1212 12.7322 34.1303 12.8262 34.1257 12.9252C34.1235 12.9884 34.1098 13.1813 34.1326 13.265C34.251 13.2821 34.4969 13.2889 34.5743 13.2872C34.7428 13.2804 34.934 13.2889 35.1025 13.306C35.3211 13.3265 35.6512 13.3777 35.7355 13.5553C35.7696 13.6305 35.7514 13.7073 35.7013 13.7756C35.6535 13.8422 35.5852 13.8917 35.4941 13.9242C35.3325 13.9805 35.1959 13.96 35.0319 13.9703C34.8247 13.9839 34.6266 14.0369 34.4149 14.0471C34.342 14.0505 34.2737 14.0471 34.2031 14.0403H34.2009C34.2031 14.0471 34.2054 14.0522 34.2054 14.0574C34.2441 14.2059 34.2441 14.3613 34.2874 14.5082C34.2988 14.544 34.3694 14.7985 34.4081 14.8207C34.4445 14.8412 34.8634 14.8378 34.9204 14.8378C35.0365 14.8395 35.1321 14.8617 35.2459 14.8787C35.3461 14.8941 35.4531 14.8924 35.5556 14.9044C35.74 14.9266 35.9495 15.0102 35.9859 15.1588C36.0133 15.2698 35.9336 15.3637 35.822 15.4286C35.6558 15.5242 35.4122 15.5003 35.2186 15.5328C35.1253 15.5499 35.0296 15.555 34.9317 15.5601C34.8065 15.5635 34.6676 15.5618 34.5424 15.5789C34.5583 15.6267 34.6084 15.7121 34.6198 15.7411C34.6562 15.8299 34.6722 15.9016 34.6904 15.9921C34.7041 16.0604 34.7541 16.1236 34.7701 16.1953C34.7837 16.2551 34.827 16.3303 34.852 16.39C34.8725 16.4395 34.8839 16.4891 34.893 16.5386C34.8953 16.5659 34.8999 16.5984 34.9112 16.624C34.9204 16.6479 34.9317 16.6701 34.9454 16.694C34.9727 16.7418 34.9955 16.7879 35.0114 16.8408V16.8425L35.1276 17.2643L35.3393 17.6161C35.4167 17.7083 35.419 17.7408 35.4554 17.8449C35.5351 18.0891 35.7264 18.3572 35.8789 18.5809C35.9336 18.6578 36.0064 18.7073 36.0292 18.7995C36.0725 18.9686 35.8584 19.1154 35.6376 19.0779C35.3871 19.0352 35.1025 18.7432 34.9636 18.5929C34.8748 18.4973 34.7883 18.3982 34.7109 18.2975C34.6562 18.2257 34.5948 18.1438 34.5561 18.0652C34.5173 17.9884 34.4513 17.903 34.3967 17.8313C34.3284 17.7391 34.2236 17.6093 34.1849 17.5085C34.1599 17.4419 34.1394 17.3719 34.1098 17.307C34.0392 17.1568 33.9413 17.0321 33.9071 16.8716C33.8776 16.7264 33.8092 16.5864 33.766 16.4447C33.7204 16.2961 33.6544 16.1441 33.6362 15.9921C33.6271 15.9238 33.6066 15.917 33.5725 15.8504C33.5315 15.7718 33.536 15.7172 33.5224 15.6387C33.5224 15.6352 33.5224 15.6318 33.5224 15.6284C33.4609 15.6284 33.3516 15.666 33.3197 15.6882C33.2878 15.7104 33.2605 15.7309 33.256 15.7633C33.2514 15.7906 33.256 15.8265 33.2605 15.8538C33.2674 15.9085 33.2742 15.9614 33.2696 16.016C33.2628 16.1014 33.256 16.1851 33.2605 16.2705C33.2628 16.3593 33.2355 16.4361 33.2332 16.5198C33.2332 16.5574 33.2423 16.5949 33.2469 16.6325C33.2537 16.6786 33.256 16.7247 33.2491 16.7708C33.2378 16.8443 33.2173 16.8852 33.2309 16.957C33.2423 17.0133 33.2514 17.068 33.24 17.1243C33.2332 17.1636 33.2195 17.2046 33.2104 17.2438C33.1968 17.3002 33.2264 17.4027 33.2286 17.4658C33.2332 17.5359 33.2264 17.6093 33.2195 17.6793C33.2104 17.7783 33.2013 17.8774 33.1877 17.9764C33.1763 18.0738 33.1626 18.1728 33.1444 18.2718C33.133 18.3419 33.1194 18.417 33.0989 18.4853C33.0556 18.6185 32.9327 18.75 32.73 18.7432C32.5501 18.738 32.4295 18.6219 32.393 18.499C32.3498 18.347 32.3293 18.1916 32.2815 18.0413C32.261 17.973 32.2314 17.8996 32.2177 17.8313C32.2041 17.7578 32.2086 17.6742 32.2109 17.599C32.2109 17.5734 32.1995 17.541 32.1927 17.5154C32.179 17.4675 32.1653 17.4214 32.1608 17.3719C32.154 17.2831 32.1449 17.196 32.1426 17.1089C32.1426 17.0201 32.1699 16.9348 32.1676 16.8511C32.1676 16.8289 32.1653 16.8084 32.1585 16.7896C32.0948 16.793 32.031 16.7999 31.9673 16.7999C31.8147 16.7999 31.6644 16.7981 31.5119 16.7964C31.414 16.7964 31.3161 16.7964 31.2182 16.7964C31.1817 16.7964 31.1408 16.7964 31.102 16.7964C31.0793 16.8579 31.0907 16.9997 31.0975 17.0458C31.1043 17.1141 31.1157 17.1841 31.1271 17.2524C31.1362 17.3053 31.1499 17.3668 31.1476 17.4197C31.1453 17.5598 31.1749 17.6947 31.1544 17.8381C31.1453 17.8945 31.1316 17.9371 31.0952 17.9867C31.0838 18.002 31.0816 18.0072 31.0793 18.0259C31.0702 18.0823 31.0725 18.1438 31.0679 18.2018C31.0633 18.2531 31.0542 18.306 31.0451 18.3555C31.0337 18.4392 31.0201 18.5212 31.0041 18.6048C30.9882 18.6936 30.9723 18.7841 30.9541 18.8729C30.9427 18.9259 30.9267 19.0181 30.888 19.0625L30.8539 19.1052L30.7901 19.1206C30.6626 19.153 30.526 19.153 30.4144 19.0881C30.2505 18.9942 30.2482 18.8337 30.2163 18.6953C30.1981 18.6031 30.1594 18.5195 30.1503 18.4238C30.1412 18.3316 30.148 18.2394 30.1412 18.1472C30.1253 17.9781 30.082 17.8193 30.0843 17.6486C30.0843 17.4607 30.0729 17.2746 30.0775 17.0884C30.0775 17.0406 30.1093 16.8545 30.0911 16.8221C30.0775 16.8152 30.041 16.8118 30.0274 16.8101C29.8133 16.793 29.5765 16.7879 29.3602 16.7981C29.1713 16.8067 28.9527 16.7981 28.766 16.7811C28.5269 16.7572 28.1694 16.7008 28.0715 16.5096C28.0283 16.4242 28.051 16.3337 28.108 16.2551C28.2651 16.04 28.7 16.098 28.9686 16.098C29.2282 16.098 29.4832 16.0895 29.7405 16.0826C29.7951 16.0809 29.8475 16.0826 29.9021 16.0843C29.9408 16.0861 30.0661 16.0895 30.1002 16.0741C30.1093 16.069 30.1139 16.0451 30.1162 16.04C30.1298 15.9734 30.1412 15.7479 30.098 15.6779C30.0615 15.666 30.0228 15.6609 29.9796 15.6609C29.9204 15.6626 29.8566 15.6711 29.7974 15.6779C29.7063 15.6865 29.6198 15.6933 29.5287 15.6865C29.251 15.666 29.0347 15.5379 28.8548 15.3842C28.5793 15.1503 28.552 14.6619 28.6203 14.3647C28.6385 14.2862 28.6362 14.1837 28.6339 14.1035C28.6316 14.0164 28.6248 13.9276 28.618 13.8388C28.6043 13.6766 28.6225 13.5143 28.6112 13.3538C28.5998 13.1779 28.6476 13.0037 28.8252 12.8808C28.9663 12.7818 29.1531 12.7391 29.342 12.7237C29.3352 12.7152 29.3284 12.7049 29.3215 12.6947C29.2396 12.5717 29.1075 12.5119 29.0073 12.4009C28.9071 12.2917 28.766 12.1636 28.7022 12.0423C28.6453 11.9313 28.5133 11.7008 28.5292 11.5881C28.5429 11.4737 28.6681 11.3764 28.8161 11.3132C28.7933 11.3063 28.7705 11.2978 28.75 11.2893C28.6476 11.2534 28.5952 11.2124 28.5747 11.1253C28.5725 11.1168 28.5702 11.1083 28.5679 11.0997C28.5497 11.0417 28.5565 10.9904 28.5702 10.9341C28.577 10.876 28.5725 10.8077 28.5725 10.7479C28.5702 10.5703 28.8388 10.4952 28.9846 10.6113C29.0164 10.596 29.0551 10.5857 29.0961 10.5857C29.1804 10.5857 29.235 10.6079 29.2851 10.654C29.2874 10.6557 29.2919 10.6574 29.2965 10.6609C29.3398 10.6882 29.3716 10.724 29.383 10.7633C29.4172 10.7565 29.449 10.7565 29.4809 10.7616C29.572 10.6711 29.7792 10.6728 29.868 10.7736C29.868 10.7633 29.868 10.7514 29.868 10.7394C29.8725 10.5857 30.1116 10.4986 30.2664 10.5994C30.271 10.6045 30.2778 10.6079 30.2824 10.613C30.3188 10.596 30.3575 10.5857 30.4008 10.5857C30.4987 10.5857 30.5647 10.613 30.6102 10.6728C30.6148 10.6762 30.6171 10.6779 30.6216 10.6813C30.6535 10.7053 30.674 10.7343 30.6831 10.765C30.6945 10.7616 30.7082 10.7599 30.7195 10.7599C30.7446 10.7565 30.7696 10.7582 30.7947 10.7633C30.8812 10.6762 31.0884 10.6694 31.1726 10.7753C31.1863 10.7787 31.1977 10.7838 31.2091 10.7906C31.2091 10.7889 31.2113 10.7889 31.2113 10.7872C31.2409 10.765 31.2705 10.7514 31.3092 10.7411C31.3206 10.736 31.3343 10.7309 31.3457 10.7275C31.3753 10.7172 31.4003 10.7104 31.4299 10.7053C31.4663 10.6848 31.5051 10.6728 31.5551 10.6694C31.5916 10.6626 31.6166 10.6591 31.6553 10.6591H31.8033C31.8785 10.6591 31.965 10.6796 32.0219 10.7189C32.0287 10.724 32.0333 10.7275 32.0378 10.7326C32.0447 10.7343 32.0492 10.7377 32.0538 10.7411C32.072 10.7309 32.0948 10.7206 32.1175 10.7155C32.1403 10.7104 32.1608 10.707 32.1813 10.707C32.1881 10.6933 32.1995 10.6796 32.2132 10.666C32.2655 10.6147 32.3475 10.5874 32.4317 10.6011C32.4704 10.6079 32.5046 10.6216 32.5319 10.6421C32.6253 10.6045 32.7551 10.6199 32.8279 10.7053C32.8325 10.7104 32.8393 10.7172 32.8439 10.724C32.8552 10.7104 32.8735 10.6967 32.8939 10.6831C33.0055 10.6147 33.1717 10.6455 33.2355 10.7411C33.2696 10.7923 33.2605 10.8419 33.2605 10.8948C33.2628 10.8948 33.2628 10.8948 33.2651 10.8948C33.3197 10.8948 33.3744 10.9102 33.4131 10.9409C33.4745 10.9853 33.4768 11.0297 33.4768 11.0878C33.4768 11.1322 33.4563 11.1697 33.4199 11.2005C33.4131 11.2124 33.404 11.2244 33.3949 11.2346ZM33.1581 11.3285C33.092 11.3268 33.026 11.3081 32.9782 11.2722C32.9531 11.2534 32.9327 11.2346 32.9144 11.2107C32.9122 11.2107 32.9122 11.209 32.9122 11.2073C32.9053 11.2022 32.8985 11.1953 32.8917 11.1885C32.8689 11.1663 32.8507 11.1373 32.8416 11.1065C32.8029 11.1185 32.7642 11.1219 32.7209 11.1168C32.7186 11.1185 32.7186 11.1219 32.7163 11.1236C32.705 11.1475 32.6913 11.1612 32.6731 11.1817C32.6526 11.2107 32.623 11.2415 32.5866 11.2619C32.5114 11.3029 32.3908 11.3132 32.3042 11.2876C32.302 11.2859 32.2997 11.2859 32.2974 11.2859C32.2587 11.3098 32.2154 11.32 32.1631 11.32C32.0583 11.32 31.9923 11.2705 31.9673 11.2073C31.9354 11.2312 31.899 11.2449 31.858 11.2534C31.8762 11.2585 31.8944 11.2671 31.9103 11.2756C32.0105 11.3251 32.0629 11.4071 32.0948 11.4925C32.113 11.5369 32.1244 11.5881 32.1426 11.6325C32.1494 11.6479 32.1585 11.6615 32.1699 11.6752C32.2063 11.7281 32.2314 11.7725 32.2496 11.8306C32.2724 11.8989 32.3338 11.9604 32.352 12.0287C32.3634 12.0731 32.3612 12.1175 32.3634 12.1619C32.3657 12.1704 32.3657 12.1892 32.3703 12.1977C32.4272 12.3002 32.4568 12.4214 32.4431 12.5324C32.4317 12.6332 32.3794 12.7408 32.261 12.7937C32.2792 12.8022 32.2997 12.8108 32.3202 12.8227C32.582 12.9559 32.623 13.1147 32.6093 13.3299C32.6913 13.3026 32.7915 13.2906 32.9076 13.2958C32.9349 13.2975 33.0055 13.3009 33.0533 13.2992C33.0533 13.265 33.0488 13.2189 33.0465 13.1984C33.0169 12.8962 33.0966 12.5598 33.0101 12.2643C32.9645 12.1124 32.9805 11.9672 32.9509 11.8169C32.9122 11.6103 32.9463 11.4549 33.1581 11.3285ZM31.8352 12.7117C31.8261 12.7049 31.817 12.6981 31.8102 12.6912C31.7031 12.5973 31.6303 12.4932 31.5073 12.4078C31.4117 12.3429 31.332 12.2797 31.2842 12.1875C31.2569 12.1328 31.2432 12.097 31.2022 12.0458C31.0747 11.8904 30.9609 11.6889 31.0656 11.5096C31.143 11.3764 31.3092 11.3046 31.4846 11.2654C31.4686 11.2551 31.4527 11.2449 31.4367 11.2329C31.4208 11.2227 31.4094 11.2124 31.3958 11.2005C31.3639 11.168 31.348 11.1287 31.3525 11.0912C31.3434 11.1185 31.3297 11.1424 31.3047 11.1663C31.2705 11.1971 31.2409 11.2244 31.1908 11.2432C31.1817 11.2466 31.1704 11.2483 31.1612 11.2517C31.1408 11.2602 31.1203 11.2671 31.0998 11.2739C31.0998 11.2739 31.0975 11.2756 31.0975 11.2773C31.0679 11.2978 31.0429 11.3081 31.0087 11.32C30.9609 11.3422 30.9199 11.3525 30.8607 11.3525C30.8425 11.3525 30.8243 11.3525 30.8061 11.3507C30.781 11.3473 30.7582 11.3422 30.7378 11.3337C30.8311 11.4003 30.8971 11.4942 30.9085 11.5949C30.9131 11.6445 30.9358 11.7042 30.9518 11.7537C30.9768 11.834 31.0064 11.9143 31.0292 11.9962C31.0542 12.0765 31.077 12.1585 31.0884 12.2421C31.0929 12.2626 31.1134 12.3019 31.1225 12.3241C31.1385 12.3583 31.1544 12.3924 31.1635 12.4283C31.1886 12.5171 31.1681 12.6212 31.1066 12.7015C31.2796 12.7083 31.4504 12.722 31.6235 12.7186C31.7031 12.7152 31.7714 12.7117 31.8352 12.7117ZM30.501 12.7015C30.4235 12.6332 30.3507 12.5563 30.2847 12.4846C30.2141 12.4095 30.1458 12.3326 30.0775 12.2575C30.0365 12.2114 30.0046 12.1687 29.9887 12.1158C29.9818 12.0902 29.9773 12.0697 29.9659 12.0458C29.9431 11.9928 29.8953 11.9365 29.8612 11.8869C29.8042 11.7999 29.7678 11.7128 29.7724 11.6154C29.7746 11.5522 29.802 11.4925 29.852 11.4412C29.9204 11.3729 30.0069 11.3371 30.1025 11.3081C30.098 11.3063 30.0911 11.3046 30.0866 11.3029C30.0433 11.2893 30.0183 11.279 29.9841 11.2568C29.9773 11.2534 29.9704 11.2483 29.9636 11.2449C29.9522 11.2363 29.9408 11.2295 29.9317 11.221C29.9181 11.2295 29.8999 11.2363 29.8794 11.2449C29.8703 11.2483 29.8612 11.25 29.8498 11.2534C29.8225 11.2671 29.7974 11.279 29.7678 11.2841C29.7223 11.3132 29.6881 11.3371 29.6244 11.3473C29.5857 11.3525 29.5469 11.3542 29.5082 11.349C29.5879 11.4139 29.6471 11.4976 29.6767 11.5779C29.6995 11.6393 29.7291 11.7008 29.7564 11.7606C29.7929 11.8357 29.8384 11.9245 29.8566 12.0031C29.8953 12.1516 29.9295 12.3002 29.9682 12.4488C29.9887 12.5341 29.9864 12.6247 29.9386 12.7049C29.9386 12.7066 29.9386 12.7066 29.9386 12.7066C30.0547 12.7015 30.1708 12.6964 30.2892 12.6998C30.3598 12.6998 30.4304 12.7015 30.501 12.7015ZM30.6626 11.291C30.649 11.279 30.6376 11.2637 30.6285 11.2466C30.6285 11.2466 30.6285 11.2449 30.6285 11.2432C30.6148 11.2346 30.6034 11.2261 30.592 11.2141C30.5852 11.2193 30.5806 11.2227 30.5715 11.2261C30.567 11.2312 30.5602 11.2329 30.5533 11.2363C30.5488 11.2415 30.5419 11.2449 30.5374 11.2483C30.5806 11.2585 30.6216 11.2722 30.6626 11.291ZM29.301 11.2449C29.2942 11.238 29.2874 11.2329 29.2806 11.2261C29.2806 11.2244 29.2783 11.2244 29.2783 11.2227C29.2737 11.2261 29.2692 11.2278 29.2623 11.2295L29.2555 11.2346C29.2714 11.238 29.2874 11.2397 29.301 11.2449ZM32.6253 13.9669C32.6253 14.0369 32.6184 14.1086 32.6139 14.1786C32.6071 14.2572 32.6002 14.3391 32.6071 14.4177C32.6184 14.5099 32.6276 14.6021 32.6253 14.6943C32.623 14.7831 32.6139 14.8736 32.6048 14.9641C32.6025 14.9846 32.6002 15.0051 32.598 15.0239C32.6526 14.9897 32.7118 14.9539 32.7528 14.9385C32.8507 14.9009 32.9463 14.8651 33.0533 14.8429C33.1444 14.8241 33.2423 14.8122 33.3357 14.7968C33.3334 14.778 33.3243 14.7524 33.3197 14.7421C33.3015 14.6926 33.281 14.6431 33.2765 14.5919C33.2719 14.5201 33.2241 14.4484 33.215 14.3733C33.2127 14.3579 33.2104 14.3562 33.2036 14.3425C33.1922 14.3203 33.1854 14.2981 33.1831 14.2759C33.1786 14.235 33.1877 14.2179 33.1968 14.182C33.1968 14.1803 33.1968 14.1786 33.1968 14.1786C33.1877 14.1342 33.1808 14.0915 33.1717 14.0488C33.1717 14.0488 33.1717 14.0488 33.1717 14.0471C33.1694 14.0471 33.1672 14.0471 33.1626 14.0471C33.1011 14.0488 33.0374 14.0488 32.9736 14.0471C32.8461 14.042 32.7232 14.0147 32.6253 13.9669ZM32.2018 15.5362C32.0105 15.6369 31.7988 15.6813 31.5529 15.6831C31.4641 15.6831 31.3753 15.6779 31.2865 15.6762C31.2683 15.6762 31.2091 15.6762 31.1886 15.6813C31.1863 15.6848 31.184 15.6899 31.184 15.6916C31.1521 15.7667 31.1704 15.9375 31.1908 16.0622C31.2022 16.0622 31.2159 16.0622 31.225 16.0639C31.3115 16.0673 31.398 16.0707 31.4846 16.0707C31.5893 16.0724 31.6918 16.0741 31.7965 16.0758C31.8625 16.0758 31.9604 16.0758 32.0219 16.0895C32.0583 16.0963 32.1084 16.0963 32.1494 16.0895C32.1608 16.0536 32.1631 15.9956 32.1631 15.9716C32.1676 15.8811 32.1676 15.7923 32.1767 15.7018C32.1813 15.6472 32.1881 15.5908 32.2018 15.5362ZM6.69631 15.6933C6.86708 15.3176 7.36799 15.0102 7.76872 14.7865C7.81198 14.7626 7.83475 14.7507 7.83475 14.7114C7.83475 14.6807 7.8393 14.6072 7.83247 14.5594C7.82108 14.5594 7.80742 14.5594 7.80059 14.5611C7.72773 14.5611 7.65715 14.5645 7.58884 14.5475C7.47272 14.5201 7.3862 14.4689 7.29285 14.4143C7.06972 14.2828 6.9832 14.2145 6.90351 14.001C6.86708 13.902 6.83065 13.8166 6.85797 13.7124C6.85797 13.7073 6.85797 13.7022 6.85797 13.6988C6.85797 13.6749 6.85114 13.6458 6.84431 13.6236C6.8352 13.5758 6.82837 13.5297 6.83065 13.4802C6.8352 13.3897 6.8056 13.3094 6.82382 13.2121C6.83748 13.1352 6.86025 13.0464 6.86025 12.9679C6.86025 12.8842 6.85797 12.8057 6.86252 12.722C6.8648 12.6895 6.86025 12.669 6.85342 12.6383C6.83976 12.5785 6.84431 12.5273 6.86025 12.4675C6.86935 12.4317 6.8648 12.377 6.8648 12.3429C6.86252 12.2951 6.86025 12.2473 6.86025 12.1994C6.86025 12.1158 6.82382 12.0219 6.83292 11.9399C6.83976 11.8613 6.85797 11.7777 6.87619 11.6991C6.89212 11.6223 6.91489 11.513 6.95132 11.4412C6.96271 11.4208 6.97637 11.4003 6.99458 11.3815C7.08338 11.2876 7.24048 11.238 7.39076 11.2517C7.57518 11.2671 7.70269 11.3678 7.74367 11.4993C7.76872 11.5813 7.76416 11.6513 7.80059 11.7333C7.83475 11.8152 7.86662 11.8989 7.90078 11.9809C7.90533 11.9945 7.91216 12.0167 7.92127 12.0355C7.93265 12.0355 7.94404 12.0355 7.95314 12.0338C8.02373 12.0321 8.09431 12.0321 8.16717 12.0355C8.27874 12.0406 8.38802 12.0509 8.49959 12.0628C8.5679 12.0697 8.70223 12.044 8.77965 12.0389C8.873 12.0338 8.95269 12.0423 9.04604 12.0509C9.08247 12.056 9.1189 12.0594 9.15533 12.0594C9.26234 12.0577 9.3648 12.0526 9.47181 12.056C9.57883 12.0611 9.68129 12.0714 9.7883 12.0697C9.79285 12.0475 9.79968 12.027 9.81334 11.9979C9.8566 11.9126 9.84067 11.8221 9.89303 11.7367C9.95906 11.6291 10.0911 11.5796 10.2368 11.5522C10.4031 11.5181 10.592 11.5949 10.6899 11.6957C10.7674 11.7742 10.7992 11.9194 10.797 12.0184C10.797 12.0833 10.7856 12.3053 10.822 12.3685C10.8493 12.4163 10.8607 12.459 10.8675 12.5119C10.8789 12.6042 10.8789 12.7049 10.8812 12.7971C10.8835 12.891 10.8857 12.9969 10.8744 13.0891C10.8675 13.1523 10.8698 13.2206 10.8721 13.2838C10.8744 13.3675 10.8789 13.4529 10.8789 13.5365C10.8835 13.7329 10.8744 14.001 10.7036 14.1598C10.5488 14.305 10.501 14.3955 10.2596 14.4894C10.0615 14.568 9.8771 14.5628 9.68129 14.5628C9.67901 14.5867 9.67901 14.6106 9.68129 14.6328C9.68812 14.667 9.73138 14.6943 9.76553 14.7148C9.8862 14.7865 10.0638 14.8668 10.205 14.9163C10.3029 14.9505 10.4031 15.0393 10.4759 15.099C10.5214 15.1349 10.5806 15.1895 10.633 15.2203C10.8038 15.3193 10.9062 15.4525 11.0133 15.5891C11.1453 15.7548 11.2273 16.4259 11.2273 16.6359C11.225 16.7298 11.2364 16.8135 11.2273 16.9074C11.2182 16.9877 11.2113 17.0714 11.2227 17.1516C11.2296 17.1977 11.2455 17.2387 11.2592 17.2848C11.2705 17.3258 11.2796 17.3668 11.2842 17.4112C11.291 17.5051 11.2774 17.5973 11.2774 17.6912C11.2774 17.8603 11.3252 18.0225 11.3252 18.1933C11.3252 18.2872 11.2956 18.3726 11.2774 18.4648C11.2705 18.4973 11.2751 18.5382 11.2774 18.5724C11.2819 18.6339 11.2819 18.6971 11.2614 18.7585C11.2409 18.8183 11.2159 18.8798 11.184 18.9361C11.1271 19.0386 11.036 19.1513 10.8744 19.165C10.781 19.1735 10.6945 19.1445 10.6307 19.0932C10.6011 19.0693 10.5556 19.0044 10.5306 18.9754C10.5055 18.943 10.4714 18.9054 10.4509 18.8712C10.3826 18.7688 10.3803 18.6971 10.3666 18.5878C10.3643 18.5758 10.3575 18.5621 10.353 18.5485C10.3439 18.5195 10.3347 18.4921 10.3302 18.4614C10.3256 18.4153 10.3325 18.3675 10.3302 18.3197C10.3256 18.2667 10.312 18.2138 10.2824 18.1643C10.189 18.0123 10.2095 17.8108 10.1776 17.6486C10.1594 17.5615 10.1526 17.4436 10.1685 17.3565C10.1754 17.3224 10.1754 17.3002 10.1685 17.2678C10.1572 17.2216 10.1503 17.1824 10.1526 17.1346C10.1526 17.0458 10.1503 16.9535 10.1435 16.8647C10.1389 16.7777 10.1367 16.6803 10.1207 16.5949C10.082 16.3968 10.0729 16.2483 10.0957 16.0485C10.0957 16.0143 10.0706 15.9153 10.0547 15.8811C10.041 15.8658 10.0251 15.8521 10.0092 15.8384C9.96134 15.7975 9.92491 15.7616 9.89303 15.7138C9.827 15.6182 9.74504 15.5311 9.60843 15.4901C9.49231 15.4559 9.36252 15.4525 9.23957 15.415C9.13484 15.3825 9.05059 15.333 8.98456 15.263C8.94358 15.2203 8.9117 15.1793 8.88438 15.1349C8.80014 15.2971 8.71817 15.3569 8.46316 15.4457C8.25597 15.5174 7.85751 15.7753 7.78238 15.9409C7.76189 15.9853 7.73912 16.0143 7.71407 16.0553V16.057C7.70724 16.0707 7.70952 16.11 7.70952 16.1236C7.7118 16.2261 7.67537 16.3063 7.64121 16.4037C7.61389 16.4754 7.61844 16.5591 7.60706 16.6342C7.60251 16.6615 7.5934 16.6837 7.58201 16.7111C7.57974 16.7179 7.57746 16.7213 7.57974 16.7281C7.58201 16.7794 7.59112 16.8238 7.58429 16.8767C7.57518 16.9518 7.55469 17.0236 7.52965 17.097C7.5046 17.1721 7.475 17.2541 7.475 17.3309C7.475 17.3805 7.46362 17.4249 7.44768 17.4727C7.43402 17.5119 7.41808 17.5495 7.4158 17.5905C7.40897 17.6742 7.4067 17.7596 7.39986 17.8432C7.39303 17.9474 7.37482 18.0294 7.33611 18.1284C7.33156 18.1421 7.32245 18.1643 7.32017 18.1813C7.33156 18.224 7.33611 18.2531 7.33611 18.2992C7.33156 18.3931 7.3179 18.487 7.27919 18.5758C7.25642 18.6253 7.22682 18.6646 7.1995 18.7124C7.18812 18.7312 7.18356 18.7466 7.18129 18.7688C7.1699 18.9208 7.10843 19.1308 6.86025 19.1496C6.64622 19.1667 6.48229 19.0078 6.42764 18.8695C6.4026 18.8046 6.39804 18.7363 6.41626 18.6697C6.42309 18.6527 6.43675 18.6117 6.43447 18.5929C6.41853 18.5417 6.40943 18.5092 6.40715 18.4563C6.40487 18.3692 6.45041 18.3077 6.4413 18.2206C6.4322 18.1352 6.45724 18.0584 6.4618 17.973C6.47318 17.7937 6.49139 17.6127 6.49367 17.4317C6.49367 17.3719 6.48229 17.3156 6.5005 17.2558C6.50961 17.2285 6.52099 17.2097 6.53466 17.1841C6.53693 17.1807 6.53693 17.1772 6.53693 17.1738C6.53693 17.0748 6.52782 16.9775 6.53466 16.8784C6.53921 16.8169 6.55742 16.7657 6.57336 16.7059C6.58019 16.6803 6.58702 16.6547 6.58702 16.6291C6.58475 16.6086 6.58475 16.5864 6.58475 16.5659C6.45724 16.735 6.24549 16.8596 5.99048 16.9262C5.79695 16.9757 5.09795 16.9962 4.89303 16.9655C4.50824 16.9091 4.23047 16.7691 4.10524 16.4805C4.07109 16.4054 4.0597 16.3337 4.05515 16.2551C4.05287 16.2005 4.05287 16.1475 4.04376 16.0946C4.03238 16.0229 4.03921 15.958 4.05287 15.888C4.0597 15.8402 4.07109 15.7958 4.06881 15.7479C4.06653 15.6728 4.07336 15.5977 4.08247 15.5225C4.10068 15.3688 4.14167 15.1742 4.10296 15.0239C4.06425 14.8736 4.06653 14.7507 4.05742 14.6004C4.04832 14.4672 4.01416 14.3408 4.01644 14.2076C4.01872 13.9412 4.01872 13.68 3.98912 13.4136C3.98001 13.3333 3.96863 13.2565 3.96635 13.1762C3.9618 13.0379 3.98456 12.8842 4.11662 12.7818C4.21225 12.7083 4.33748 12.6776 4.46954 12.6793C4.94996 12.6878 5.13438 12.9884 5.13438 13.3077C5.13211 13.4477 5.14349 13.5895 5.13211 13.7295C5.12983 13.7517 5.123 13.8081 5.12527 13.8456C5.23912 13.8525 5.53739 13.8337 5.61252 13.8303C5.61025 13.7961 5.60114 13.7397 5.60114 13.7193C5.58748 13.5536 5.65578 13.3828 5.86298 13.3009C6.077 13.2155 6.32746 13.2701 6.50961 13.3726C6.65078 13.4529 6.7464 13.5519 6.77828 13.6834C6.81699 13.8456 6.74413 13.9942 6.73274 14.1513C6.71908 14.3613 6.65533 14.5611 6.62573 14.7678C6.62118 14.8139 6.61662 14.8583 6.61662 14.9044C6.61435 14.959 6.64622 15 6.67354 15.0478C6.71225 15.1144 6.73502 15.1776 6.73502 15.251C6.73274 15.374 6.6781 15.4969 6.69176 15.6165C6.69404 15.6421 6.69404 15.6677 6.69631 15.6933ZM24.6403 16.9672C24.7018 16.9792 24.761 16.9928 24.8225 17.0082C25.148 17.0919 25.4805 17.1568 25.8038 17.2456C26.1476 17.3429 26.4459 17.4624 26.7373 17.6332C27.0128 17.7954 27.2177 18.0174 27.3634 18.2548C27.4135 18.335 27.4408 18.4153 27.4682 18.5024C27.4818 18.5468 27.4955 18.5912 27.516 18.6339C27.5684 18.738 27.6594 18.8695 27.6048 18.9805C27.5684 19.054 27.4864 19.0966 27.3976 19.1291L27.3156 19.1581L27.2337 19.1291C27.0674 19.0693 26.9582 18.931 26.8625 18.8183C26.8193 18.7671 26.7714 18.709 26.7168 18.6646C26.6052 18.5758 26.4868 18.4853 26.3571 18.4119C26.2842 18.3709 26.2136 18.3402 26.1339 18.3077C26.0383 18.2667 25.9541 18.2275 25.8698 18.1745C25.7765 18.1165 25.5146 18.0447 25.3985 18.0123C25.2323 17.9679 25.041 17.9167 24.8703 17.8876C24.6016 17.8415 24.342 17.763 24.0688 17.7288C23.8047 17.6964 23.5269 17.6571 23.2582 17.6468C23.1216 17.6417 22.9827 17.6503 22.8461 17.6468C22.6663 17.64 22.5114 17.6093 22.3498 17.5478C22.0151 17.4197 21.9308 17.2609 21.8375 17.0031C21.7897 16.8733 21.776 16.752 21.7828 16.6171C21.7897 16.5027 21.8079 16.39 21.8079 16.2756C21.8056 16.1953 21.817 16.0587 21.7828 15.9819C21.7532 15.9204 21.6804 15.8777 21.6098 15.8436C21.5392 15.8077 21.3707 15.8145 21.2888 15.8128C21.2728 15.8128 21.2409 15.8128 21.2204 15.8162C21.2091 15.8419 21.2022 15.9068 21.2 15.9272C21.1863 16.0246 21.1681 16.1151 21.1248 16.209C21.077 16.3081 21.0838 16.4071 21.0656 16.5113C21.0451 16.6206 21.011 16.7298 20.9928 16.8408C20.9859 16.8887 20.9837 16.9416 20.9837 16.9911C20.9814 17.0611 20.9791 17.1328 20.9768 17.2029C20.9723 17.3207 20.97 17.4539 20.9381 17.5683C20.9108 17.6708 20.8744 17.7732 20.863 17.8757C20.8539 17.9611 20.8311 18.0516 20.8083 18.1352C20.7787 18.2599 20.7423 18.3828 20.7036 18.5041C20.6558 18.6612 20.5328 19.054 20.3939 19.1718L20.3143 19.2401L20.1981 19.2145C19.9067 19.1496 19.8634 18.8559 19.8475 18.6646C19.8407 18.5912 19.8384 18.5195 19.8338 18.446C19.8316 18.3999 19.8316 18.347 19.8202 18.3026C19.802 18.2206 19.8407 18.1301 19.8361 18.0481C19.8338 18.0328 19.8247 18.0106 19.8225 17.9935C19.8156 17.9679 19.8156 17.944 19.8225 17.9184C19.8429 17.8091 19.8293 17.71 19.8247 17.6007C19.8225 17.5171 19.827 17.4385 19.8521 17.3565C19.8908 17.2234 19.8725 17.0492 19.8748 16.9109C19.8794 16.7333 19.9659 16.4395 20.0456 16.2671C20.0592 16.2005 20.0592 16.1287 20.0706 16.0604C20.0866 15.9716 20.1276 15.9204 20.1663 15.8402C20.1754 15.8231 20.1799 15.8077 20.1799 15.7923C20.0479 15.765 19.9158 15.7445 19.786 15.7087C19.7405 15.6967 19.6995 15.6813 19.6585 15.6626C19.5515 15.6113 19.4559 15.5311 19.4536 15.4303C19.4513 15.3296 19.5378 15.2561 19.6517 15.2134C19.786 15.1605 19.9249 15.14 20.0729 15.1247C20.1549 15.1144 20.271 15.1042 20.3439 15.0751C20.4509 15.0307 20.4736 14.918 20.485 14.8344C20.4941 14.7558 20.5351 14.6448 20.6011 14.5816C20.6945 14.4928 20.7491 14.3972 20.8129 14.2964C20.9222 14.1206 21.2888 13.8046 21.5187 13.7175C21.8102 13.6048 21.9194 13.4938 21.9445 13.2462C21.9559 13.125 21.9627 13.0003 21.9354 12.8791C21.9081 12.7544 21.949 12.6247 21.9172 12.5034C21.9149 12.4915 21.9081 12.4658 21.899 12.4471C21.883 12.4471 21.8648 12.4471 21.8534 12.4471C21.7919 12.4471 21.735 12.4488 21.6735 12.4453C21.6143 12.4436 21.5551 12.4419 21.4959 12.4436C21.4572 12.4453 21.4185 12.4471 21.3798 12.4453C21.2728 12.4436 21.1635 12.418 21.0611 12.3941C21.0542 12.3907 21.0451 12.3907 21.0383 12.3907C21.0064 12.3873 20.9723 12.389 20.9404 12.389C20.8812 12.3873 20.8265 12.3822 20.7696 12.3702C20.6968 12.3548 20.6125 12.3344 20.5397 12.3275C20.3393 12.3087 20.0524 12.1619 20.0046 12.0099L19.9796 11.9313L20.0592 11.875C20.271 11.7247 20.3666 11.7213 20.6376 11.6889C20.8357 11.665 21.0337 11.6291 21.2364 11.6393C21.4367 11.6496 21.603 11.6206 21.7988 11.6052C21.9878 11.5898 22.1562 11.5984 22.3384 11.6462C22.5684 11.7042 22.6867 11.7691 22.8097 11.9296C22.9076 12.056 23.0169 12.1909 23.0328 12.3395C23.0488 12.4915 23.0397 12.6417 23.0647 12.7937C23.0738 12.8415 23.0761 12.8876 23.0784 12.932C23.0829 12.7596 23.0829 12.5871 23.0738 12.4146C23.0647 12.2336 23.0693 12.0526 23.0602 11.8716C23.051 11.682 23.0055 11.3678 23.281 11.2688C23.4609 11.2039 23.6635 11.2705 23.8024 11.361C23.8912 11.4173 23.9755 11.4976 24.0119 11.5813C24.0438 11.6598 24.0643 11.7469 24.087 11.8272C24.0984 11.8716 24.1303 11.9945 24.1599 12.0338C24.2145 12.0782 24.6084 12.044 24.6836 12.0423C24.9454 12.0389 25.2072 12.044 25.4714 12.044C25.5898 12.044 25.7036 12.0509 25.8197 12.056C25.9495 12.0628 26.0656 12.0628 26.1931 12.0526C26.307 12.0423 26.4276 12.0509 26.5392 12.0543C26.5984 12.056 26.7828 12.0611 26.8306 12.0355C26.8489 12.0236 26.8625 12.0099 26.8762 11.9945C26.8921 11.9723 26.9035 11.9467 26.9126 11.9228C26.9559 11.8169 26.9741 11.7128 27.0811 11.6274C27.1494 11.571 27.2428 11.5352 27.3452 11.5403C27.5752 11.5522 27.7391 11.7623 27.7938 11.9109C27.8643 12.1004 27.8598 12.3514 27.8507 12.5461C27.8416 12.7271 27.8234 12.9081 27.8097 13.0891C27.796 13.265 27.8097 13.4375 27.8143 13.6134C27.8165 13.68 27.8143 13.7466 27.8097 13.8115C27.8006 13.9293 27.7824 14.054 27.796 14.1718C27.8143 14.3323 27.8097 14.4979 27.8006 14.6585C27.7938 14.7797 27.7847 14.8992 27.7778 15.0205C27.7733 15.1127 27.7687 15.2083 27.7801 15.3005C27.7983 15.4833 27.8029 15.6745 27.8029 15.8589C27.8051 15.9716 27.8029 16.0861 27.7938 16.1988C27.7869 16.2824 27.7778 16.3815 27.7482 16.4617C27.6959 16.612 27.4363 16.8016 27.261 16.8818C27.0151 16.9962 26.7601 16.9672 26.4868 16.9689C26.2136 16.9689 25.9404 16.9638 25.6694 16.9723C25.4076 16.9792 25.148 16.9621 24.8885 16.9672C24.8065 16.9689 24.7223 16.9689 24.6403 16.9672ZM23.5383 16.834C23.4996 16.8118 23.4609 16.7879 23.4176 16.7589C23.2423 16.641 23.1148 16.4276 23.0829 16.2534C23.026 15.9443 23.0488 15.6489 23.0829 15.3398C23.108 15.0922 23.1398 14.8446 23.1239 14.5936C23.1125 14.4074 23.0738 14.2247 23.0715 14.0386C23.0693 13.8661 23.0579 13.6936 23.0602 13.5212C23.0624 13.3606 23.0693 13.2001 23.0738 13.0379C23.0693 13.1165 23.0556 13.195 23.0442 13.2787C22.9964 13.61 22.8985 13.7961 22.6754 14.083C22.5456 14.2503 22.4226 14.2674 22.2177 14.3477C22.0765 14.404 21.735 14.6892 21.6758 14.8002C21.6439 14.8583 21.6052 14.918 21.5688 14.9744C21.5551 14.9983 21.5392 15.0222 21.5255 15.0461C21.5802 15.041 21.6394 15.0341 21.6713 15.0341C21.8466 15.0324 22.1198 15.0649 22.2701 15.1281C22.6412 15.2852 22.8689 15.5464 22.8848 15.8658C22.9008 16.168 22.9008 16.4686 22.9099 16.7691C22.9099 16.7794 22.9122 16.8084 22.919 16.8221C22.9623 16.834 23.1171 16.8289 23.1581 16.8289C23.2878 16.8255 23.4131 16.8255 23.5383 16.834ZM35.2346 11.2671C35.3985 11.3183 35.5306 11.4395 35.5442 11.5693C35.5488 11.6206 35.5533 11.6906 35.5693 11.7401C35.5852 11.7896 35.592 11.8357 35.5943 11.8869C35.5943 11.9143 35.5943 11.9399 35.5989 11.9672C35.6171 12.0662 35.6353 12.1158 35.6057 12.2199C35.592 12.2746 35.5738 12.3446 35.567 12.4009C35.5647 12.488 35.5488 12.5871 35.4827 12.6622C35.4167 12.7356 35.3074 12.7732 35.189 12.7578C35.0957 12.7459 35.0046 12.6981 34.9613 12.6349C34.9386 12.6025 34.8976 12.5666 34.8725 12.5359C34.8088 12.4607 34.7655 12.3805 34.7337 12.2951C34.72 12.2592 34.6881 12.2387 34.6631 12.2063C34.6426 12.179 34.6312 12.1499 34.6266 12.1209C34.6175 12.068 34.6061 12.0167 34.5857 11.9672C34.5811 11.9621 34.5743 11.957 34.5697 11.9535C34.506 11.8921 34.4946 11.8272 34.5014 11.7503C34.5014 11.7486 34.5014 11.7469 34.5014 11.7452C34.4923 11.7247 34.4855 11.7076 34.4809 11.6837C34.4764 11.6479 34.4764 11.6171 34.4923 11.5864C34.4946 11.4925 34.5401 11.4071 34.6449 11.349C34.6881 11.3234 34.7405 11.3063 34.7929 11.2944C34.8065 11.291 34.827 11.2876 34.8452 11.2841C34.8338 11.279 34.8225 11.2739 34.8133 11.2671C34.8111 11.2654 34.8088 11.2619 34.8042 11.2602C34.7245 11.3234 34.5993 11.3285 34.4969 11.2773C34.4946 11.2773 34.4923 11.2756 34.49 11.2739C34.4855 11.2756 34.4809 11.2773 34.4764 11.279C34.4399 11.2944 34.4081 11.2978 34.3716 11.2995C34.2988 11.3217 34.2009 11.3149 34.1212 11.3149C34.0734 11.3149 34.0415 11.3063 34.0005 11.2944C33.955 11.2807 33.9254 11.2654 33.8935 11.2397C33.8388 11.2073 33.8343 11.1902 33.807 11.1492C33.791 11.1253 33.7819 11.1031 33.7774 11.0792C33.5838 11.0365 33.5201 10.835 33.7409 10.7565C33.7523 10.7514 33.7637 10.7479 33.7728 10.7462C33.8161 10.6489 33.9663 10.6011 34.0893 10.6438C34.1348 10.6079 34.2009 10.5857 34.2669 10.5857C34.3329 10.5857 34.3944 10.6045 34.4377 10.6404C34.4673 10.666 34.4809 10.6882 34.4878 10.7121C34.5492 10.724 34.597 10.7497 34.6266 10.7821C34.6312 10.777 34.6357 10.7719 34.6426 10.7667C34.6562 10.7377 34.6745 10.7155 34.7041 10.6933C34.7109 10.6865 34.72 10.6813 34.7291 10.6762C34.7678 10.6079 34.8384 10.5567 34.95 10.5567C35.0797 10.5567 35.1845 10.6421 35.1845 10.7377C35.1845 10.7719 35.1731 10.806 35.148 10.8367C35.1458 10.8402 35.1435 10.8419 35.1389 10.8453C35.164 10.8384 35.189 10.835 35.2186 10.835C35.378 10.835 35.4805 10.9443 35.444 11.0553C35.4395 11.0741 35.4304 11.0895 35.419 11.1065C35.4008 11.1527 35.3735 11.1817 35.3211 11.2141C35.312 11.221 35.3029 11.2261 35.2915 11.2312C35.2869 11.2329 35.2847 11.2346 35.2801 11.2363C35.2755 11.2415 35.2687 11.2449 35.2642 11.25C35.2551 11.2568 35.2437 11.2619 35.2346 11.2671ZM17.3839 12.167C17.3839 12.2216 17.3725 12.2797 17.3771 12.3326C17.3839 12.4846 17.3088 12.6332 17.1175 12.7032C16.9832 12.7527 16.8261 12.751 16.6895 12.7117C16.546 12.669 16.4276 12.5888 16.3639 12.4829C16.3502 12.4607 16.3388 12.4351 16.3297 12.4095C16.2796 12.2695 16.3138 12.1465 16.2933 12.0099C16.2774 11.9006 16.3571 11.6854 16.4003 11.5796C16.4481 11.4617 16.5438 11.2312 16.6758 11.1561C16.7145 11.1339 16.7578 11.1202 16.8056 11.1168C16.965 11.1065 17.0765 11.2073 17.1517 11.2978C17.1927 11.3473 17.2337 11.4071 17.261 11.4634C17.3202 11.5813 17.3703 11.6701 17.3748 11.7742C17.4636 11.6906 17.5957 11.653 17.7232 11.612C17.8735 11.5642 18.256 11.5847 18.4222 11.5915C18.5429 11.5984 18.6658 11.6052 18.7865 11.6171C18.8707 11.624 18.9641 11.6308 19.046 11.6462C19.1052 11.6581 19.1622 11.6701 19.2168 11.6854C19.424 11.7486 19.5538 11.8784 19.4946 12.0509C19.4604 12.1533 19.3898 12.2387 19.2555 12.2814C19.1963 12.3002 19.1371 12.307 19.0734 12.3122C19.0392 12.3139 18.9982 12.3156 18.9641 12.3224C18.8753 12.3412 18.7728 12.3531 18.6817 12.3651C18.6271 12.3736 18.5725 12.3805 18.5178 12.389C18.4928 12.3924 18.4609 12.3958 18.4358 12.4009C18.2605 12.4624 17.8507 12.4317 17.7004 12.3651C17.5752 12.3087 17.4613 12.2507 17.3839 12.167ZM13.0192 13.4956C12.9554 13.5263 12.8962 13.5622 12.8325 13.5912C12.7505 13.6287 12.648 13.6544 12.557 13.6783C12.3543 13.7329 12.1357 13.7193 11.9263 13.7193C11.8079 13.7193 11.7259 13.7432 11.6007 13.7193C11.3707 13.6749 11.2614 13.487 11.4299 13.347C11.4823 13.3043 11.587 13.2599 11.6553 13.2309C11.7555 13.1865 11.858 13.1421 11.9559 13.0925C12.0447 13.0481 12.1449 12.9952 12.2154 12.9372C12.2769 12.8893 12.3361 12.8415 12.3999 12.7937C12.4317 12.7698 12.4682 12.7442 12.4978 12.7169C12.5888 12.6383 12.6731 12.4966 12.7346 12.4044C12.771 12.348 12.7983 12.2968 12.8188 12.237C12.8393 12.179 12.8552 12.1209 12.8757 12.0628C12.8894 12.0253 12.8962 11.974 12.9008 11.9348C12.9099 11.8665 12.9213 11.7964 12.9395 11.7281C12.9941 11.5232 13.1239 11.3371 13.4176 11.2841C13.6567 11.2415 13.9504 11.3917 14.0278 11.5608C14.0779 11.6684 14.0529 11.7828 14.0233 11.8921C14.0096 11.945 13.9891 12.0048 13.9868 12.056C13.9823 12.2165 13.9231 12.3326 13.8821 12.4846C13.8593 12.5683 13.8184 12.6349 13.7569 12.7066C13.7204 12.751 13.684 12.7903 13.6612 12.8415C13.643 12.8757 13.6271 12.9064 13.6112 12.9372C13.7 12.8928 13.807 12.8569 13.8798 12.833C13.98 12.7988 14.1644 12.7408 14.2737 12.7339C14.3853 12.7271 14.786 12.7613 14.8885 12.7254C14.8999 12.6742 14.8976 12.5785 14.8976 12.5359C14.8976 12.4095 14.893 12.2831 14.893 12.1568C14.893 12.0492 14.893 11.9382 14.8999 11.8289C14.9067 11.7401 14.9181 11.641 14.95 11.5557C14.9796 11.4771 15.098 11.2995 15.1799 11.2517C15.2482 11.2141 15.3325 11.1953 15.4167 11.2124C15.5237 11.2346 15.5852 11.3029 15.6285 11.3764C15.6421 11.3986 15.6535 11.4276 15.6694 11.4498C15.8152 11.6359 15.9586 11.7964 15.9609 12.0236C15.9632 12.2456 15.9973 12.4675 15.9996 12.6895C15.9996 12.6912 15.9996 12.6947 15.9996 12.6964C16.0474 12.7117 16.2045 12.7117 16.2478 12.7117C16.3388 12.7134 16.4299 12.7152 16.5187 12.7271C16.6326 12.7442 16.751 12.7749 16.8671 12.78C17.097 12.7903 17.4021 12.8586 17.434 13.0601C17.4522 13.1728 17.368 13.2667 17.2519 13.3316C17.0925 13.4204 16.9991 13.4068 16.8215 13.4136C16.7965 13.4153 16.7874 13.417 16.7646 13.4255C16.6439 13.4665 16.5551 13.4734 16.4231 13.4682C16.4003 13.4682 16.3798 13.4699 16.3593 13.4734C16.2341 13.4938 16.1567 13.516 16.0201 13.5126C16.011 13.5126 15.9973 13.5109 15.9814 13.5109C15.9814 13.5246 15.9814 13.5382 15.9814 13.5451C15.9768 13.6578 15.9814 13.7705 15.9882 13.8815C15.9996 14.1001 15.9745 14.3152 15.9814 14.5321C16.0451 14.4211 16.159 14.3374 16.3252 14.2999C16.1089 14.1547 16.0087 13.9327 16.2432 13.7602C16.3343 13.6919 16.4322 13.6305 16.5643 13.6151C16.6531 13.6048 16.7532 13.6168 16.8443 13.6134C16.9194 13.61 17.0265 13.6202 17.097 13.6065C17.2086 13.5861 17.3361 13.6168 17.4477 13.6151C17.6754 13.6151 17.9076 13.6048 18.133 13.6185C18.4882 13.6373 19.0574 13.5861 19.3602 13.7346C19.6107 13.8576 19.6745 14.165 19.3921 14.293C19.2737 14.346 19.1166 14.3545 18.9823 14.3596C18.9072 14.3613 18.8092 14.3613 18.7341 14.3733C18.6954 14.3801 18.6567 14.3801 18.6157 14.3818C18.6134 14.4143 18.5998 14.4399 18.5702 14.4792C18.5679 14.4809 18.5656 14.4826 18.5633 14.486C18.5656 14.4945 18.5656 14.5031 18.5656 14.5099C18.5702 14.6004 18.5702 14.6892 18.5633 14.7797C18.5611 14.807 18.5679 14.8326 18.5725 14.8583C18.5838 14.9044 18.5907 14.9471 18.5884 14.9932C18.5861 15.0649 18.5725 15.1383 18.5633 15.21C18.5588 15.2578 18.5429 15.3535 18.5497 15.3996C18.5725 15.4884 18.5633 15.6011 18.5565 15.6899C18.552 15.7599 18.5451 15.8333 18.5451 15.9033C18.5451 15.9597 18.5793 16.0246 18.5861 16.0861C18.5861 16.1014 18.5861 16.1168 18.5861 16.1339C18.5656 16.3712 18.5565 16.5898 18.5861 16.8272C18.5975 16.916 18.5907 17.0201 18.5702 17.1089C18.5633 17.1346 18.5679 17.1516 18.5725 17.179C18.5838 17.2336 18.5861 17.2797 18.5747 17.3343C18.5702 17.3548 18.5702 17.3856 18.5702 17.4061C18.5725 17.4505 18.5725 17.4949 18.5747 17.5393C18.577 17.6093 18.5793 17.6844 18.5725 17.7544C18.552 17.9081 18.5656 18.0789 18.5178 18.2292C18.5087 18.2565 18.5041 18.2701 18.5133 18.2958C18.5269 18.3333 18.5315 18.3658 18.5269 18.405C18.5246 18.4409 18.5155 18.4699 18.5019 18.5024C18.4905 18.5314 18.4905 18.5502 18.495 18.5809C18.4996 18.6424 18.4791 18.7295 18.4586 18.7893C18.4245 18.8968 18.3539 19.0232 18.1899 19.0471C18.1034 19.0608 18.0192 19.0369 17.9554 18.9925C17.9258 18.9703 17.7801 18.8132 17.7664 18.7841C17.7459 18.7466 17.7368 18.6868 17.73 18.6458C17.7232 18.61 17.7163 18.5741 17.7095 18.5382C17.705 18.5229 17.6913 18.4973 17.6822 18.4802C17.6594 18.4358 17.6412 18.3914 17.6298 18.3436C17.6162 18.2804 17.6207 18.2035 17.598 18.1421C17.5433 17.9833 17.5069 17.8637 17.5183 17.6981C17.5228 17.6451 17.5183 17.5854 17.516 17.5324C17.5137 17.4368 17.5092 17.3412 17.5046 17.2456C17.4978 17.097 17.4909 16.9501 17.4841 16.8016C17.4818 16.7828 17.4796 16.7674 17.4727 16.7486C17.4545 16.682 17.45 16.6291 17.4568 16.5608C17.4613 16.53 17.4591 16.4993 17.4568 16.4669C17.4545 16.4122 17.4591 16.3644 17.475 16.3115C17.4841 16.279 17.5 16.1971 17.4932 16.1629C17.4704 16.1134 17.4545 16.0656 17.4522 16.0109C17.45 15.9734 17.4545 15.9358 17.4545 15.8982C17.4477 15.7565 17.4249 15.6455 17.4568 15.502C17.4636 15.4662 17.5 15.3193 17.4909 15.2835V15.2818C17.4682 15.2288 17.4568 15.193 17.4522 15.1366C17.4454 15.0581 17.4477 14.9675 17.45 14.889C17.45 14.8361 17.45 14.7831 17.4522 14.7302C17.4545 14.6943 17.4545 14.6465 17.4659 14.6124C17.4887 14.5458 17.4864 14.4757 17.4659 14.4091C17.2746 14.4228 17.0561 14.4433 16.8511 14.4365C16.9445 14.5321 17.0014 14.6568 16.9969 14.7575C16.9946 14.8309 16.9718 14.9095 16.9832 14.9829C16.9878 15.0205 16.9991 15.0546 17.0082 15.0922C17.0219 15.1503 17.0265 15.2049 17.0174 15.2647C16.99 15.444 17.0128 15.6387 17.0356 15.818C17.0538 15.9751 17.0788 16.1322 17.0879 16.2893C17.0925 16.3798 17.0902 16.472 17.0925 16.5625C17.0948 16.6479 17.1266 16.7333 17.1312 16.8203C17.138 17.0048 17.1289 17.1892 17.1403 17.3719C17.1471 17.4658 17.1631 17.5546 17.1585 17.6486C17.154 17.7408 17.1858 17.8279 17.1881 17.9218C17.1904 18.0157 17.1449 18.1079 17.1562 18.195C17.1585 18.2275 17.1608 18.2599 17.1585 18.2923C17.1517 18.3692 17.1175 18.4443 17.0287 18.4887C16.9422 18.5314 16.8375 18.5246 16.7487 18.4904C16.5893 18.4272 16.5255 18.2889 16.4868 18.1677C16.4663 18.1062 16.4504 18.0242 16.4231 17.9662C16.3707 17.862 16.3457 17.7664 16.3229 17.6571C16.3092 17.5939 16.2956 17.5324 16.2728 17.471C16.2068 17.2865 16.1931 17.1175 16.159 16.9296C16.1271 16.7537 16.0861 16.5796 16.052 16.402C16.0178 16.2295 16.0315 16.0519 16.0041 15.8794C15.9973 15.9819 15.9859 16.0843 15.9768 16.1817C15.9677 16.2841 15.9882 16.3934 15.9905 16.4976C15.9905 16.7162 15.9905 16.9348 15.9905 17.1533C15.9928 17.3702 16.0133 17.5854 16.0133 17.8022C16.0133 17.9218 15.9768 18.0259 15.9609 18.1421C15.9563 18.1865 15.9541 18.2292 15.9495 18.2736C15.9449 18.3384 15.9313 18.3982 15.9131 18.4597C15.8835 18.557 15.8721 18.6578 15.8448 18.7551C15.8265 18.8217 15.8402 18.8542 15.7924 18.9225C15.756 18.9737 15.7469 19.0437 15.74 19.1001C15.7264 19.194 15.7127 19.2896 15.6216 19.3613C15.5442 19.4211 15.4418 19.4587 15.3279 19.4399C15.1412 19.4074 15.0729 19.2469 15.0342 19.124C15.0183 19.0762 15.0069 19.0266 14.9955 18.9788C14.9909 18.9532 14.9864 18.9259 14.9796 18.9003C14.9408 18.8012 14.8908 18.709 14.8862 18.6014C14.8816 18.4938 14.8976 18.3948 14.8771 18.2855C14.8543 18.1711 14.8634 18.0362 14.8657 17.9184C14.8703 17.8091 14.868 17.6998 14.8657 17.5905C14.8657 17.4795 14.8885 17.3685 14.8862 17.2575C14.8839 17.1448 14.8589 17.0304 14.8634 16.9177C14.868 16.8357 14.8771 16.752 14.8816 16.6701C14.8862 16.6223 14.8885 16.5744 14.8908 16.5249C14.8908 16.5027 14.893 16.4737 14.8908 16.4498C14.8862 16.431 14.8839 16.4139 14.8794 16.3986C14.8771 16.4105 14.8748 16.4208 14.8725 16.431C14.8361 16.6018 14.8338 16.7742 14.802 16.9467C14.7724 17.097 14.8133 17.2541 14.7883 17.4095C14.7633 17.5666 14.72 17.7339 14.6699 17.8876C14.6175 18.0516 14.5151 18.3487 14.3079 18.4375C14.2168 18.4768 14.1098 18.4904 14.0119 18.4529C13.8571 18.3948 13.8229 18.2514 13.8138 18.1335C13.8092 18.0925 13.8092 18.0516 13.8092 18.0106C13.8092 17.9867 13.8115 17.9628 13.8092 17.9389C13.791 17.7493 13.8411 17.5768 13.8434 17.3907C13.8434 17.3275 13.8616 17.2695 13.8753 17.2063C13.8798 17.1824 13.8844 17.1568 13.8844 17.1311C13.8821 17.0475 13.8571 16.9655 13.8548 16.8801C13.8548 16.7059 13.8867 16.5471 13.8457 16.3747C13.8366 16.3354 13.832 16.2961 13.832 16.2568C13.8297 16.1219 13.8753 15.9938 13.8753 15.8624C13.8753 15.7753 13.8798 15.6882 13.8753 15.6028C13.8684 15.5072 13.8912 15.4167 13.8867 15.3244C13.8821 15.1759 13.873 15.0341 13.8889 14.8856C13.9163 14.6294 14.0278 14.2896 14.449 14.2811C14.6221 14.2777 14.7815 14.3511 14.8816 14.4553C14.8771 14.4279 14.8748 14.404 14.8725 14.3801C14.868 14.3408 14.8657 14.3016 14.8657 14.2606C14.8703 14.1496 14.8634 14.0403 14.8748 13.9276C14.8816 13.8507 14.8908 13.6168 14.8771 13.4819C14.7769 13.4768 14.6745 13.4751 14.5743 13.4699C14.4445 13.4631 14.317 13.4324 14.1918 13.429C14.1075 13.4255 14.0233 13.4221 13.939 13.4136C13.9755 13.446 14.0051 13.4853 14.021 13.528C14.1371 13.8303 13.9481 14.1598 13.8684 14.457C13.848 14.5338 13.8229 14.6072 13.7796 14.6807C13.7455 14.737 13.7068 14.7917 13.6749 14.848C13.5975 14.9761 13.5611 15.0768 13.5838 15.2169C13.5952 15.2783 13.6112 15.3364 13.6203 15.3962C13.6316 15.4833 13.6316 15.5686 13.6203 15.654C13.5998 15.7958 13.5884 15.9375 13.5793 16.0792C13.5702 16.2158 13.5611 16.3747 13.5816 16.5113C13.5998 16.6274 13.5929 16.7469 13.5816 16.863C13.5656 17.015 13.5269 17.2012 13.5588 17.3497C13.577 17.4402 13.5884 17.5273 13.5725 17.6195C13.5611 17.6878 13.5383 17.7544 13.5246 17.8244C13.5133 17.8842 13.5315 17.9525 13.5246 18.0157C13.5155 18.0874 13.4882 18.1489 13.4723 18.2172C13.4632 18.265 13.4586 18.3145 13.4541 18.3624C13.4472 18.429 13.4404 18.4938 13.4313 18.5587C13.4085 18.7158 13.363 18.9088 13.2036 19.0232C13.1171 19.0864 13.0032 19.1257 12.8826 19.0932C12.689 19.0386 12.6435 18.8303 12.6435 18.6936C12.6435 18.6424 12.6367 18.5878 12.6321 18.5365C12.6253 18.4546 12.6184 18.3709 12.6093 18.2889C12.6025 18.195 12.5934 18.1011 12.5843 18.0072C12.5797 17.9542 12.5706 17.8808 12.5775 17.8296C12.5866 17.7681 12.5934 17.7066 12.5843 17.6451C12.5729 17.5785 12.5615 17.5171 12.5547 17.4505C12.5433 17.3565 12.5638 17.2814 12.5957 17.1926C12.6139 17.1397 12.6298 17.0919 12.6253 17.0372C12.6116 16.8835 12.6071 16.7281 12.6116 16.5744C12.6116 16.501 12.6344 16.4276 12.6344 16.3559C12.6344 16.2876 12.623 16.2193 12.623 16.1492C12.6253 15.9956 12.6162 15.8299 12.6389 15.6762C12.6412 15.6506 12.6526 15.5891 12.6572 15.5396C12.6002 15.5601 12.5433 15.5806 12.4864 15.5977C12.3885 15.625 12.2815 15.6387 12.179 15.6523C11.949 15.6813 11.5255 15.7343 11.4049 15.5413C11.3889 15.5191 11.3821 15.4935 11.3798 15.4696C11.3639 15.2971 11.6121 15.2066 11.7714 15.1281C11.899 15.0649 12.0242 14.9915 12.1471 14.9231C12.2245 14.8805 12.302 14.8361 12.3794 14.7917C12.4158 14.7712 12.4636 14.7456 12.4978 14.7216C12.7505 14.4706 12.878 14.0044 12.9372 13.6988C12.9509 13.627 12.9782 13.557 13.0192 13.4956ZM13.3311 13.2906C13.3334 13.2906 13.3357 13.2906 13.3357 13.2889C13.3835 13.2787 13.4358 13.2719 13.4905 13.2719C13.4723 13.2548 13.4586 13.236 13.4495 13.2138C13.4449 13.2035 13.4404 13.1916 13.4381 13.1796C13.429 13.1899 13.4199 13.1984 13.4108 13.2087C13.3835 13.2343 13.3584 13.2633 13.3311 13.2906ZM5.04558 15.7804C5.07063 15.7992 5.09568 15.8162 5.12072 15.8453C5.1617 15.8914 5.1822 15.9392 5.21407 15.9853C5.23229 16.0109 5.24595 16.0246 5.28466 16.0297C5.33702 16.0348 5.53283 16.0724 5.5852 16.069C5.59203 16.0553 5.59886 16.028 5.60114 16.0178C5.60114 16.016 5.60342 16.0143 5.60342 16.0126C5.60114 16.0092 5.59886 16.0058 5.59886 16.0024C5.5852 15.9631 5.58065 15.9307 5.58748 15.8897C5.59431 15.8538 5.61025 15.8128 5.60797 15.777C5.60797 15.7479 5.60114 15.7326 5.59431 15.707C5.57154 15.6387 5.57609 15.5772 5.59203 15.5089C5.59886 15.4696 5.61252 15.4286 5.61935 15.3893C5.62391 15.3637 5.61708 15.3227 5.6148 15.2954C5.60342 15.1912 5.65578 14.7234 5.47819 14.6824C5.32336 14.6465 5.21635 14.6465 5.14577 14.766C5.12072 14.8053 5.13211 14.959 5.13438 15.0051C5.13438 15.0717 5.12527 15.1298 5.10706 15.193C5.09795 15.2271 5.08884 15.2596 5.08201 15.2954C5.06608 15.3774 5.06152 15.4764 5.05469 15.5618C5.05014 15.6147 5.04786 15.6677 5.04558 15.7206C5.04558 15.7377 5.04331 15.7599 5.04558 15.7804ZM24.9135 16.1031C24.7906 16.0861 24.6858 16.0434 24.5356 15.9597C24.3193 15.8367 24.1804 15.6899 24.1462 15.485C24.1439 15.4952 24.1439 15.5037 24.1417 15.514C24.1257 15.6147 24.1075 15.7138 24.1007 15.8162C24.0984 15.8589 24.0779 16.0075 24.1007 16.0519C24.1576 16.0792 24.3124 16.1202 24.3671 16.1236C24.5174 16.1305 24.6676 16.1083 24.8202 16.1048C24.8498 16.1031 24.8816 16.1031 24.9135 16.1031ZM25.2118 16.1134C25.2277 16.1134 25.2414 16.1134 25.2551 16.1134C25.3279 16.1134 25.3985 16.1134 25.4714 16.1134C25.3985 16.1117 25.3279 16.1083 25.2573 16.1117C25.2437 16.1117 25.2277 16.1134 25.2118 16.1134ZM25.8561 16.1117C25.8994 16.1134 25.9427 16.1168 25.9814 16.1185C26.0793 16.1253 26.1772 16.1305 26.2751 16.1322C26.3639 16.1322 26.6462 16.1339 26.6827 16.0485C26.6872 16.016 26.6872 15.9768 26.6872 15.9426C26.6872 15.8743 26.6872 15.8043 26.6872 15.736C26.6872 15.6643 26.6849 15.5943 26.6827 15.5242C26.6827 15.4935 26.6827 15.4611 26.6804 15.4286C26.6326 15.7035 26.4367 15.8982 26.0474 16.0622C25.9859 16.0878 25.9222 16.1031 25.8561 16.1117ZM26.6781 15.1229C26.6895 14.988 26.7145 14.8395 26.7009 14.7063C26.6781 14.4655 26.6713 14.2247 26.6667 13.9822C26.6622 13.8559 26.6667 13.7244 26.6804 13.598C26.6849 13.5656 26.6872 13.5331 26.6849 13.499C26.6804 13.5331 26.6713 13.5707 26.6622 13.6185C26.6326 13.7961 26.6644 13.9703 26.6098 14.1496C26.6007 14.182 26.5916 14.2111 26.5984 14.2418C26.6098 14.293 26.6212 14.3323 26.6212 14.3852C26.6235 14.4706 26.5984 14.5543 26.6007 14.638C26.603 14.6807 26.6189 14.7046 26.6394 14.7421C26.6599 14.7831 26.6758 14.8207 26.6804 14.8651C26.6895 14.9522 26.669 15.0359 26.6781 15.1229ZM26.6804 13.4016C26.6758 13.3538 26.6713 13.306 26.6713 13.2565C26.6713 13.2223 26.6713 13.1882 26.6735 13.1523C26.6735 13.0994 26.6758 12.9935 26.6348 12.9457C26.6075 12.9132 26.5392 12.9047 26.4891 12.903C26.159 12.8842 25.8129 12.9389 25.4805 12.9098C25.3256 12.8945 25.1708 12.9235 25.0092 12.9098C24.8703 12.8996 24.7314 12.9047 24.5925 12.903C24.5287 12.903 24.465 12.8996 24.4012 12.8962C24.3534 12.8945 24.2396 12.891 24.1986 12.9115C24.169 12.9252 24.169 12.9833 24.169 13.0037C24.1713 13.0533 24.1667 13.1045 24.1599 13.154C24.1553 13.2087 24.1394 13.2923 24.1462 13.3453C24.1485 13.3572 24.1508 13.3709 24.1508 13.3828C24.1622 13.3419 24.1804 13.3009 24.2077 13.2633C24.3306 13.0857 24.597 13.0242 24.8407 12.9918C24.8976 12.9833 24.9613 12.9833 25.0183 12.9815C25.1002 12.9781 25.1799 12.9781 25.2596 12.9781C25.3894 12.9764 25.5214 12.9764 25.649 12.9798C25.7264 12.9833 25.7765 12.9935 25.847 13.0072C25.8766 13.0123 25.904 13.0072 25.9336 13.002C26.0838 12.9713 26.2296 13.0072 26.3616 13.0601C26.4891 13.1113 26.562 13.2018 26.6257 13.2958C26.6531 13.3367 26.6713 13.3709 26.6804 13.4016ZM25.378 13.7841C25.3325 13.7978 25.2163 13.8268 25.1959 13.849C25.1867 13.8559 25.1708 13.8729 25.164 13.8849C25.164 13.8866 25.164 13.8866 25.164 13.8883C25.1799 13.9361 25.1867 13.972 25.1754 14.0215C25.1321 14.2025 25.1389 14.4057 25.1412 14.5884C25.1435 14.679 25.1321 14.7729 25.1276 14.8634C25.1253 14.9163 25.123 14.9693 25.1207 15.0222C25.1207 15.0461 25.1207 15.082 25.1253 15.1059C25.1412 15.1451 25.1776 15.2356 25.2141 15.2613C25.2482 15.2852 25.3643 15.2869 25.4076 15.2869C25.4327 15.2869 25.5283 15.2852 25.5533 15.2732C25.5715 15.251 25.5898 15.1161 25.5966 15.0888C25.633 14.8941 25.5898 14.7097 25.5898 14.515C25.5898 14.3203 25.5875 14.124 25.5738 13.9293C25.5693 13.8678 25.567 13.8456 25.5123 13.8029C25.4827 13.7927 25.4099 13.7824 25.378 13.7841ZM7.98274 12.9269C7.9668 12.9372 7.95542 12.9474 7.95087 12.9628C7.93721 12.9986 7.94404 13.0686 7.94404 13.1079C7.94404 13.2309 7.94404 13.3538 7.94404 13.4768C7.94404 13.54 7.94859 13.6646 8.00551 13.7175C8.04649 13.7534 8.13074 13.7568 8.18994 13.7551C8.35843 13.7534 8.55196 13.7449 8.70906 13.7978C8.72272 13.8029 8.78192 13.8217 8.79786 13.82C8.81152 13.8183 8.82746 13.8132 8.84112 13.8098C8.87755 13.8012 8.91398 13.791 8.95269 13.7841C9.09385 13.7551 9.22591 13.7466 9.37163 13.7466C9.43994 13.7483 9.53329 13.7534 9.59932 13.7415C9.6403 13.7346 9.6699 13.7193 9.6995 13.6988C9.71772 13.6851 9.76098 13.6544 9.77919 13.6373C9.78147 13.6117 9.77464 13.5622 9.77464 13.5382C9.77236 13.4768 9.77691 13.4153 9.77919 13.3555C9.78374 13.2821 9.78602 13.2104 9.78374 13.1369C9.78147 13.0738 9.76781 12.862 9.68812 12.8227C9.67445 12.8142 9.64713 12.8159 9.63119 12.8193C9.31243 12.8586 9.08247 12.9559 8.74322 12.9269C8.6066 12.915 8.46316 12.9098 8.32427 12.9081C8.25597 12.9064 8.04877 12.9064 7.98274 12.9269ZM31.2022 13.7756L31.5073 13.7432L31.5233 13.7466C31.5255 13.709 31.5187 13.6731 31.4937 13.6424C31.48 13.6253 31.4527 13.5895 31.4299 13.569C31.4003 13.5639 31.348 13.5639 31.3229 13.5622C31.2956 13.5604 31.2273 13.5519 31.1817 13.5502C31.1817 13.557 31.1817 13.5639 31.184 13.5707C31.1908 13.6219 31.2045 13.6663 31.2045 13.7193C31.2022 13.738 31.2022 13.7568 31.2022 13.7756ZM29.7177 13.6202C29.7063 13.6612 29.6949 13.7295 29.6904 13.7841C29.7837 13.7944 29.95 13.7841 30.0069 13.7773C30.0274 13.7739 30.0547 13.7722 30.0797 13.7705C30.082 13.7483 30.0843 13.7227 30.0797 13.7039C30.0592 13.6561 30.0592 13.6083 30.0592 13.5587C30.0137 13.5622 29.9682 13.5622 29.9226 13.5604C29.8999 13.5587 29.868 13.5553 29.8452 13.557C29.8407 13.557 29.8384 13.557 29.8338 13.5587C29.8133 13.5707 29.7359 13.6065 29.7177 13.6202ZM29.7086 14.6243C29.7154 14.6721 29.7223 14.7216 29.7291 14.7473C29.7382 14.7797 29.7405 14.8104 29.745 14.8412C29.7587 14.8531 29.7815 14.8702 29.7951 14.8805C29.852 14.9214 30.0114 14.9915 30.0957 14.959C30.1025 14.9214 30.0888 14.8224 30.0888 14.7934C30.0888 14.7524 30.1048 14.6585 30.082 14.6124C30.0456 14.6141 29.975 14.6226 29.9522 14.6243C29.8816 14.6294 29.8065 14.626 29.7337 14.6243C29.7268 14.6243 29.72 14.6243 29.7086 14.6243ZM31.1931 14.5748C31.1931 14.5867 31.1954 14.6004 31.1954 14.6072C31.1977 14.6533 31.2022 14.6977 31.2045 14.7421C31.2045 14.7763 31.2022 14.8104 31.2 14.8429C31.1977 14.8497 31.1977 14.8617 31.1977 14.8702C31.2478 14.8787 31.348 14.8719 31.3935 14.8702C31.4231 14.8583 31.4755 14.8122 31.4914 14.7951C31.5301 14.7609 31.521 14.696 31.521 14.6533C31.521 14.6346 31.5255 14.5816 31.5233 14.5509C31.4686 14.5406 31.3889 14.5321 31.348 14.5406C31.3161 14.5475 31.2387 14.5628 31.1931 14.5748Z" fill="#FEFEFE"/>
<path fill-rule="evenodd" clip-rule="evenodd" d="M31.2979 14.4041C31.3912 14.3853 31.5392 14.4006 31.628 14.4297C31.7373 14.4638 31.71 14.5799 31.71 14.6534C31.71 14.7422 31.7168 14.8156 31.6371 14.8856C31.5848 14.9334 31.5051 15.0034 31.4185 15.0103C31.3229 15.0171 31.1476 15.0256 31.0793 14.9847C30.9746 14.9232 31.0178 14.8498 31.0155 14.7456C31.0042 14.4843 30.9472 14.4741 31.2979 14.4041ZM34.1827 10.8487H34.0688C34.0073 10.8487 34.0506 10.7924 34.0164 10.7753C33.9982 10.7668 33.9572 10.7685 33.9504 10.7958C33.9459 10.8197 33.9618 10.8487 33.9276 10.8641C33.8821 10.8846 33.8707 10.8658 33.8229 10.8829C33.7546 10.9085 33.8115 10.9461 33.8548 10.9461C33.8821 10.9461 33.939 10.9187 33.9504 10.958C33.9527 10.97 33.9504 10.9888 33.955 11.0041C33.9572 11.0178 33.9618 11.0263 33.9641 11.0451C33.9641 11.0639 33.9686 11.0724 33.9755 11.0844C33.9914 11.1066 33.9868 11.1151 34.0142 11.1305C34.0392 11.1442 34.0301 11.1493 34.0711 11.1612C34.0848 11.1664 34.103 11.1732 34.1212 11.1732C34.1644 11.1732 34.276 11.1766 34.3056 11.1681C34.3193 11.1629 34.3215 11.1612 34.342 11.1595C34.3511 11.1595 34.3785 11.1578 34.3853 11.1544C34.4081 11.1459 34.4126 11.0878 34.3739 11.0878C34.2942 11.0878 34.3329 11.0844 34.2737 11.098C34.2578 11.1015 34.2419 11.1083 34.2236 11.1083H34.1052C34.0756 11.1083 34.0574 11.0793 34.0529 11.0656C34.0483 11.0519 34.0506 11.0434 34.0438 11.0297C34.0256 10.9973 34.0324 10.9888 34.0324 10.9461C34.0324 10.9341 34.0438 10.929 34.0574 10.9256C34.087 10.9205 34.0961 10.9085 34.1348 10.9102C34.1644 10.9119 34.2032 10.9017 34.2145 10.9256C34.2282 10.9597 34.1895 11.0212 34.251 11.0212C34.2692 11.0212 34.2851 11.0127 34.2919 11.0041C34.317 10.9751 34.2828 10.9273 34.3284 10.9273C34.3466 10.9273 34.3625 10.9358 34.383 10.9358C34.4081 10.9358 34.4286 10.9375 34.4468 10.9307C34.4946 10.9102 34.4923 10.859 34.4399 10.8487C34.4217 10.8453 34.3762 10.8487 34.3534 10.8487C34.317 10.8487 34.3011 10.8487 34.3033 10.8197C34.3033 10.7651 34.3215 10.7275 34.2669 10.7275C34.2487 10.7275 34.2327 10.7343 34.2259 10.7429C34.1963 10.7685 34.2464 10.8487 34.1827 10.8487ZM34.8202 10.9222C34.8202 10.9034 34.8566 10.8829 34.8657 10.8761L34.8999 10.8419C34.9021 10.8385 34.9044 10.8351 34.9067 10.8299C34.9363 10.7855 34.9955 10.7787 34.9955 10.7377C34.9955 10.7172 34.9705 10.6985 34.95 10.6985C34.9113 10.6985 34.8999 10.736 34.893 10.748C34.8862 10.7616 34.8612 10.777 34.8384 10.7924C34.8088 10.8146 34.827 10.8231 34.7951 10.8487C34.7769 10.8658 34.7838 10.8743 34.7496 10.9034C34.7359 10.9136 34.695 10.9649 34.6813 10.9836C34.6699 10.999 34.6767 10.9956 34.6585 11.0093C34.6449 11.0212 34.6335 11.0366 34.6198 11.0485C34.5993 11.0707 34.6062 11.0554 34.5925 11.0912C34.5811 11.1185 34.5652 11.1424 34.6016 11.1595C34.6289 11.1732 34.6585 11.1783 34.6767 11.1527L34.7063 11.1066C34.7109 11.0963 34.7177 11.0588 34.7405 11.04C34.745 11.0349 34.7473 11.0332 34.7542 11.028C34.7633 11.0212 34.7769 11.0127 34.786 11.0075C34.8156 10.9905 34.868 10.9495 34.8953 10.9888C34.9386 11.0519 34.8771 11.0434 34.9067 11.1117C34.9113 11.122 34.9135 11.1322 34.9181 11.1407C34.9226 11.151 34.9317 11.1561 34.9409 11.1612C34.9591 11.1732 35.0069 11.1766 35.0205 11.1766C35.0866 11.1715 35.0593 11.1715 35.1002 11.1612C35.1116 11.1578 35.1207 11.1561 35.1321 11.1493C35.1412 11.1424 35.1481 11.1356 35.1572 11.1288C35.1663 11.122 35.1731 11.1202 35.1845 11.1151C35.1913 11.1117 35.1936 11.11 35.1981 11.1066C35.246 11.0776 35.23 11.0741 35.246 11.0468C35.2528 11.0366 35.2573 11.0366 35.2619 11.0229C35.2664 11.0058 35.2596 10.9768 35.2186 10.9768C35.1913 10.9768 35.1435 11.0485 35.1276 11.069C35.123 11.0776 35.1162 11.0827 35.1071 11.0878C35.0661 11.1083 35.0684 11.1083 35.0274 11.1083C34.975 11.1083 35.0023 11.0519 34.9955 10.9888C34.9932 10.9683 34.9773 10.9546 34.9591 10.9444L34.8885 10.9273C34.8771 10.9273 34.8202 10.9495 34.8202 10.9222ZM29.8042 11.011C29.8042 11.0297 29.7746 11.0707 29.7496 11.081C29.7382 11.0861 29.7246 11.0861 29.72 11.0741V10.9649C29.7223 10.9375 29.7724 10.9375 29.7883 10.9683C29.7951 10.9819 29.8042 10.9905 29.8042 11.011ZM29.4741 11.0024C29.4627 10.9905 29.4673 10.9922 29.4695 10.9768C29.4695 10.9666 29.4718 10.9529 29.4741 10.9444C29.4809 10.8983 29.4149 10.888 29.4081 10.9187C29.4035 10.9461 29.4058 11.0485 29.4058 11.081C29.4058 11.1015 29.4172 11.1083 29.424 11.122C29.4263 11.1271 29.4263 11.1356 29.4331 11.1407C29.4604 11.1698 29.506 11.0929 29.5083 11.0776C29.5128 11.0554 29.5128 11.0554 29.5287 11.04C29.547 11.0229 29.5401 11.0178 29.572 10.9922C29.5788 10.9888 29.5857 10.9836 29.5902 10.9802C29.6039 10.97 29.6062 10.9563 29.6244 10.9529C29.6358 10.958 29.6403 10.9614 29.6403 10.9734V11.0519C29.6403 11.0639 29.6358 11.0793 29.6221 11.0793C29.6062 11.0793 29.5902 11.0383 29.5561 11.0554C29.5333 11.0673 29.5379 11.0963 29.5606 11.11C29.5652 11.1134 29.613 11.1373 29.5652 11.1578C29.5515 11.1646 29.5105 11.1817 29.5105 11.1954C29.5105 11.2159 29.5652 11.2108 29.5857 11.209C29.6084 11.2056 29.6358 11.1817 29.6494 11.1732C29.6654 11.1629 29.6699 11.1544 29.695 11.1493C29.7268 11.1442 29.7132 11.1527 29.7473 11.1339C29.7701 11.122 29.7838 11.122 29.7997 11.1151C29.8361 11.1032 29.8407 11.0793 29.8612 11.0502C29.868 11.0383 29.8817 11.0246 29.8817 11.011C29.8817 10.999 29.8566 10.9614 29.8498 10.9529C29.8407 10.9444 29.8338 10.9375 29.8247 10.929C29.8202 10.9239 29.8179 10.9222 29.8111 10.917C29.7929 10.9 29.7746 10.9017 29.7542 10.9C29.7086 10.8948 29.7246 10.8726 29.7109 10.8521C29.695 10.8351 29.6335 10.8299 29.6266 10.8556C29.6198 10.8897 29.6449 10.8812 29.5993 10.9102C29.5447 10.9461 29.5834 10.9222 29.5401 10.9409C29.4946 10.9614 29.5014 10.9922 29.4741 11.0024ZM31.0155 10.9785C31.0155 10.9734 31.0178 10.958 31.0201 10.9546C31.0246 10.9392 31.0611 10.9341 31.0884 10.9683C31.0952 10.9768 31.0998 10.9802 31.1043 10.9871C31.1203 11.0041 31.1157 11.0178 31.1043 11.0332C31.0884 11.0485 31.0725 11.0844 31.0429 11.0844C31.0087 11.0844 31.0178 11.0502 31.0178 11.04C31.0178 11.0178 31.0155 11.0007 31.0155 10.9785ZM31.077 11.1254C31.118 11.11 31.1066 11.1237 31.1567 11.0776C31.1635 11.0707 31.1658 11.0656 31.1681 11.0571C31.1772 11.0195 31.1977 11.0246 31.1726 10.9717C31.1567 10.9392 31.1544 10.9478 31.1248 10.9256C31.118 10.9187 31.1089 10.9119 31.0998 10.9068C31.0793 10.8914 31.0338 10.9085 31.0201 10.888C31.0133 10.8778 31.0224 10.8641 31.0155 10.8521C31.0019 10.8299 30.945 10.8368 30.945 10.8556C30.945 10.8778 30.9541 10.8931 30.9245 10.8983C30.8903 10.9068 30.9017 10.9085 30.8812 10.9256C30.8675 10.9375 30.8493 10.9392 30.8334 10.9495C30.822 10.9563 30.8038 10.9768 30.7878 10.9768C30.7719 10.9768 30.7901 10.9444 30.7787 10.9187C30.7719 10.9085 30.7583 10.8983 30.7378 10.9C30.7195 10.9017 30.7104 10.9119 30.7036 10.9239C30.6968 10.9409 30.7013 10.9461 30.7013 10.9666C30.7013 10.9768 30.6991 10.9666 30.7013 10.9819C30.7036 10.9888 30.7013 10.9939 30.7013 11.0007C30.7013 11.0468 30.6991 11.0263 30.7104 11.0673C30.7195 11.1049 30.7082 11.0912 30.7355 11.1202C30.7423 11.1288 30.7469 11.1373 30.7605 11.1373C30.7719 11.1373 30.781 11.1271 30.7856 11.1202C30.8152 11.0878 30.7833 11.0861 30.8311 11.0451C30.8539 11.0263 30.8493 11.0229 30.8698 11.0007C30.8835 10.9888 30.8949 10.9683 30.9108 10.958C30.9404 10.9375 30.9654 10.9529 30.9654 10.9683V11.0314C30.9654 11.0468 30.9427 11.1083 30.9062 11.069C30.8903 11.0536 30.8949 11.0519 30.8721 11.0519C30.8516 11.0519 30.8357 11.0895 30.8675 11.11C30.9176 11.1407 30.8653 11.1595 30.8448 11.1715C30.8379 11.1749 30.8357 11.1783 30.8288 11.1817C30.8243 11.1851 30.8174 11.1851 30.8106 11.1903C30.7924 11.209 30.8425 11.2108 30.8607 11.2108C30.888 11.2108 30.8971 11.2039 30.9131 11.1954C30.9313 11.1886 30.9472 11.1868 30.9632 11.1766C30.9791 11.1646 30.9723 11.1578 31.0019 11.151C31.0224 11.1459 31.0565 11.1322 31.077 11.1254ZM32.4135 10.818C32.4135 10.8043 32.4249 10.7975 32.4249 10.7855C32.4249 10.7685 32.3999 10.7172 32.3657 10.7514C32.3384 10.777 32.3475 10.789 32.3361 10.8026C32.3065 10.8436 32.3407 10.8487 32.2382 10.8487C32.22 10.8487 32.1927 10.847 32.1767 10.8504C32.1654 10.8539 32.1494 10.8658 32.1494 10.8761C32.1494 10.8965 32.179 10.9085 32.1995 10.9085C32.2428 10.9085 32.2428 10.9017 32.2633 10.9017C32.3156 10.9017 32.2838 10.9341 32.2769 10.9478C32.2724 10.9649 32.2746 10.9649 32.261 10.9785L32.2246 11.0349C32.22 11.04 32.22 11.0434 32.2132 11.0468C32.179 11.0776 32.2018 11.0571 32.179 11.0844L32.1562 11.1083C32.138 11.1271 32.138 11.1783 32.1631 11.1783C32.1813 11.1783 32.1767 11.1766 32.195 11.1664C32.2041 11.1612 32.2109 11.1595 32.22 11.1544C32.2382 11.1442 32.2337 11.1356 32.2519 11.1202C32.2701 11.1015 32.2655 11.1151 32.2838 11.0827C32.2929 11.0622 32.3042 11.0605 32.3111 11.0434C32.3134 11.0332 32.3134 11.0297 32.3225 11.0212C32.3361 11.0075 32.3566 10.9802 32.3612 10.9614C32.3657 10.9495 32.368 10.9478 32.3725 10.9392C32.3771 10.929 32.3748 10.9222 32.3794 10.9136C32.3953 10.8795 32.4932 10.8778 32.4932 10.9392C32.4932 10.9802 32.4978 10.9888 32.475 11.0195C32.4545 11.0468 32.4636 11.0332 32.4522 11.0588C32.4454 11.0724 32.4317 11.0844 32.4135 11.0878C32.3839 11.0946 32.3065 11.0741 32.3065 11.1015C32.3065 11.11 32.3202 11.1168 32.327 11.122C32.3498 11.139 32.3498 11.1493 32.3725 11.1544C32.3976 11.1629 32.45 11.1612 32.475 11.1476C32.4864 11.1407 32.5023 11.122 32.5092 11.1117C32.5183 11.098 32.5319 11.0912 32.5388 11.0741C32.5456 11.0588 32.5593 11.0468 32.5593 11.028V10.8914C32.5593 10.8829 32.5433 10.8692 32.5365 10.8624C32.5251 10.8539 32.5205 10.8487 32.5046 10.8436C32.4613 10.8299 32.4135 10.8521 32.4135 10.818ZM31.3753 10.9478C31.3867 10.9478 31.4072 10.9409 31.4208 10.9375C31.4641 10.9256 31.4572 10.9239 31.496 10.9068C31.5096 10.9017 31.521 10.9 31.5369 10.8948C31.5665 10.8863 31.546 10.8846 31.6166 10.8675C31.6508 10.859 31.6599 10.8504 31.7077 10.8504C31.7396 10.8504 31.7919 10.847 31.8124 10.8573C31.8193 10.8607 31.8215 10.8641 31.8284 10.8675C31.842 10.8761 31.8466 10.8812 31.858 10.8931C31.8648 10.8983 31.8648 10.9 31.8716 10.9068C31.8944 10.9375 31.8944 10.9341 31.8762 10.9597C31.8603 10.9819 31.8625 10.9939 31.8215 11.0229L31.7623 11.0468C31.751 11.0502 31.7373 11.0502 31.7259 11.0536C31.6827 11.069 31.7191 11.0639 31.6576 11.0707C31.6166 11.0758 31.6212 11.0861 31.587 11.0878C31.5597 11.0878 31.5256 11.0912 31.5483 11.1151C31.5552 11.122 31.562 11.1271 31.5711 11.1339C31.6121 11.1664 31.644 11.1612 31.7032 11.1493C31.7282 11.1442 31.7282 11.1339 31.7578 11.1254C31.7828 11.1168 31.8147 11.1254 31.8443 11.098C31.8603 11.0827 31.8762 11.0776 31.8921 11.0673C31.9012 11.0622 31.9103 11.0519 31.9195 11.0451C31.9286 11.0366 31.9377 11.0314 31.9468 11.0212C31.965 11.0007 31.9582 10.9734 31.965 10.9444C31.9673 10.929 31.9604 10.9187 31.9604 10.9034C31.9604 10.8778 31.9468 10.8573 31.9217 10.8436C31.8944 10.8299 31.9058 10.8317 31.8921 10.8214C31.8739 10.8095 31.8352 10.8009 31.8033 10.8009H31.6553C31.6121 10.8009 31.6052 10.8077 31.5756 10.8095C31.5392 10.8112 31.5415 10.8248 31.5187 10.8334C31.5073 10.8385 31.4641 10.8419 31.4276 10.8556C31.414 10.8607 31.4026 10.8641 31.3889 10.8692C31.3685 10.8761 31.3639 10.8743 31.348 10.8863C31.3138 10.9136 31.3411 10.9478 31.3753 10.9478ZM28.8411 10.8983C28.8411 10.8487 28.8593 10.8504 28.8593 10.8214V10.7309C28.8593 10.6916 28.7592 10.678 28.7614 10.7463C28.7614 10.7753 28.7637 10.9392 28.7592 10.9546C28.7478 10.9905 28.7387 11.028 28.7501 11.0656C28.7546 11.0776 28.7569 11.0861 28.7614 11.0998C28.7751 11.1544 28.807 11.1493 28.8411 11.1646C28.8662 11.1766 28.8935 11.1868 28.9231 11.1868C28.98 11.1868 28.9572 11.1886 29.0051 11.1766L29.0939 11.1527L29.1417 11.122C29.1781 11.0963 29.1644 11.1237 29.194 11.0724C29.2145 11.04 29.2601 11.0127 29.1736 11.0127C29.1326 11.0127 29.0961 11.0656 29.0665 11.0827C29.0552 11.0878 29.046 11.0895 29.0347 11.0946C28.9937 11.1151 28.9891 11.1049 28.9618 11.1134C28.9504 11.1168 28.9413 11.1237 28.9254 11.1237C28.9072 11.1237 28.8685 11.1083 28.8616 11.1015C28.8571 11.0998 28.8502 11.0912 28.848 11.0878C28.8411 11.0741 28.8457 11.0656 28.8457 11.0485C28.8457 11.0383 28.8434 11.0366 28.8411 11.028V10.8983ZM30.1389 10.9495C30.1389 10.9341 30.1412 10.9222 30.1458 10.9102C30.1572 10.8624 30.1526 10.777 30.1526 10.7258C30.1526 10.6865 30.0593 10.6882 30.057 10.7429C30.0547 10.8573 30.0547 10.9666 30.0547 11.081C30.0547 11.1015 30.0615 11.1134 30.0729 11.1254C30.0775 11.1305 30.0843 11.1356 30.0911 11.1407C30.0957 11.1442 30.098 11.1442 30.1025 11.1476C30.1276 11.1612 30.1298 11.1629 30.1617 11.1732C30.205 11.1868 30.1981 11.1868 30.2437 11.1868C30.2938 11.1868 30.394 11.1561 30.4236 11.1356C30.4327 11.1271 30.444 11.122 30.4554 11.1151C30.4827 11.0998 30.4896 11.0793 30.5055 11.0588C30.5101 11.0536 30.5488 11.0127 30.4964 11.0127C30.4349 11.0127 30.4532 11.0195 30.4008 11.0502C30.394 11.0554 30.394 11.0536 30.3894 11.0605C30.3803 11.069 30.378 11.0724 30.3666 11.0793C30.2938 11.1202 30.296 11.1015 30.2619 11.1134C30.2323 11.1254 30.2164 11.1288 30.1868 11.1151C30.1617 11.1032 30.1389 11.0963 30.1389 11.0571V10.9495ZM32.9873 10.859C32.9873 10.9051 33.0055 10.9051 33.0055 10.9614C33.0055 10.9768 33.0032 11.0024 33.0055 11.0178C33.0078 11.0349 33.0215 11.04 33.0237 11.0622C33.026 11.0776 33.0328 11.0946 33.0442 11.1049C33.0579 11.1185 33.0602 11.1168 33.0761 11.1373C33.0852 11.151 33.0943 11.1595 33.1103 11.1698C33.1376 11.1903 33.1877 11.192 33.215 11.1732C33.2628 11.1424 33.2446 11.1288 33.2651 11.1151C33.2765 11.1083 33.2878 11.1032 33.2878 11.0878C33.2878 11.0656 33.2947 11.0366 33.2651 11.0366C33.2287 11.0366 33.2082 11.0929 33.174 11.0929C33.1512 11.0929 33.1467 11.0844 33.1353 11.0724C33.1125 11.0536 33.1125 11.0485 33.1034 11.0195C33.0989 11.011 33.0966 11.0041 33.0943 10.9956C33.0875 10.9768 33.0943 10.9631 33.0829 10.9444C33.0761 10.9358 33.0715 10.9324 33.0715 10.9205C33.0693 10.8914 33.0784 10.8231 33.0647 10.8043C33.0556 10.7907 33.0306 10.7821 33.0146 10.7924C32.9827 10.8112 32.9873 10.8317 32.9873 10.859ZM33.4358 10.8368C33.4358 10.8658 33.4404 10.8675 33.4768 10.8965C33.495 10.9102 33.5064 10.9239 33.5155 10.9427L33.5292 10.9717C33.5451 11.0093 33.5155 11.0622 33.5656 11.0622C33.5952 11.0622 33.6225 11.0451 33.6225 11.0144C33.6225 10.9563 33.6294 10.958 33.6021 10.9273L33.577 10.8965C33.5565 10.8743 33.577 10.8897 33.5429 10.8573C33.5338 10.8487 33.5269 10.847 33.5178 10.8402C33.5064 10.8299 33.4928 10.8095 33.47 10.8095C33.4495 10.8095 33.4358 10.8214 33.4358 10.8368ZM32.6048 10.789C32.6048 10.8317 32.6002 10.8299 32.6207 10.8573C32.6276 10.8658 32.6298 10.8761 32.6367 10.8846C32.664 10.9205 32.6503 10.9239 32.6731 10.9409C32.6936 10.9597 32.6959 10.97 32.7368 10.9751C32.7528 10.9785 32.7664 10.9785 32.7801 10.9734C32.8211 10.9546 32.8006 10.9392 32.7847 10.9187C32.771 10.8983 32.7482 10.888 32.7186 10.8573C32.7141 10.8504 32.7118 10.8487 32.705 10.8436C32.6822 10.8214 32.6981 10.8163 32.6685 10.7821C32.6458 10.7531 32.6048 10.7616 32.6048 10.789ZM28.9641 10.7992C28.9641 10.8129 28.9823 10.8368 29.0028 10.8453C29.0142 10.8504 29.0278 10.8521 29.0392 10.8556C29.0574 10.8624 29.0506 10.8692 29.0802 10.8692C29.0916 10.8692 29.1052 10.8607 29.1052 10.8487C29.1052 10.8368 29.0984 10.8299 29.0893 10.8231C29.0688 10.7992 29.0688 10.8077 29.0392 10.7873C29.0233 10.7736 29.021 10.7736 29.0005 10.7736C28.9846 10.7736 28.9641 10.7873 28.9641 10.7992ZM30.3689 10.7531C30.3689 10.777 30.3985 10.7958 30.4281 10.8077C30.4577 10.818 30.4736 10.8351 30.4896 10.8214C30.5215 10.7941 30.4759 10.7753 30.46 10.7616C30.4395 10.7394 30.4486 10.7275 30.4008 10.7275C30.3848 10.7275 30.3689 10.7411 30.3689 10.7531ZM30.2664 10.7958C30.2664 10.8129 30.2915 10.8317 30.3097 10.8402C30.3234 10.8487 30.3552 10.8692 30.3689 10.8692C30.4031 10.8692 30.4053 10.8453 30.3871 10.8231C30.3712 10.8043 30.3621 10.806 30.3507 10.7975C30.3348 10.7855 30.3325 10.7736 30.3029 10.7736C30.2847 10.7736 30.2664 10.7838 30.2664 10.7958ZM9.6016 12.6793C10.0911 12.6196 9.95452 13.3146 9.96363 13.5332C9.97046 13.692 9.98639 13.6851 9.83157 13.7996C9.61071 13.9618 9.41035 13.8388 9.00051 13.9208C8.83885 13.9532 8.82291 13.9925 8.63166 13.9276C8.51098 13.8866 8.32428 13.8952 8.19222 13.8986C7.81426 13.9037 7.75734 13.7125 7.75506 13.4785C7.75506 13.3556 7.75506 13.2309 7.75506 13.108C7.75506 12.9884 7.7323 12.8979 7.86663 12.8142C7.99414 12.7357 8.59523 12.7715 8.76372 12.7869C9.06426 12.8125 9.30106 12.7152 9.6016 12.6793ZM20.189 11.9775C20.2186 12.068 20.444 12.1756 20.5602 12.1858C20.6421 12.1927 20.74 12.2166 20.8197 12.2336C20.9427 12.2593 21.0269 12.2353 21.118 12.2575C21.4345 12.3327 21.3411 12.2917 21.6827 12.3036C21.965 12.3156 22.0492 12.2644 22.1039 12.4761C22.1403 12.6144 22.097 12.7459 22.1221 12.8552C22.1517 12.9884 22.1449 13.1233 22.1335 13.2565C22.1039 13.5536 21.9536 13.709 21.603 13.8422C21.414 13.9157 21.0747 14.2094 20.9837 14.3562C20.9108 14.4724 20.8562 14.568 20.7491 14.6687C20.7082 14.7097 20.6786 14.7968 20.6717 14.848C20.6103 15.3689 20.1207 15.1896 19.7382 15.3381C19.5265 15.4218 19.7109 15.5379 19.8498 15.5755C20.0205 15.6233 20.1685 15.637 20.3416 15.6814C20.4281 15.8658 20.2869 15.9239 20.2596 16.0793C20.2528 16.1202 20.2368 16.2876 20.23 16.303C20.1572 16.4549 20.0684 16.7606 20.0638 16.9126C20.0615 17.0646 20.0797 17.2456 20.0365 17.389C19.9796 17.5786 20.0524 17.7237 20.0092 17.9389C20.0001 17.9748 20.0228 17.9987 20.0251 18.0431C20.0274 18.1114 19.9978 18.2343 20.0069 18.277C20.0501 18.4631 19.9773 19.0164 20.2528 19.0779C20.4053 18.9481 20.6512 18.067 20.674 17.8638C20.6877 17.7493 20.7241 17.652 20.7537 17.541C20.8015 17.3583 20.781 16.9758 20.8061 16.8238C20.822 16.7145 20.8562 16.6018 20.8766 16.4908C20.9017 16.3644 20.8858 16.2876 20.945 16.1612C21.0816 15.8692 20.9176 15.6626 21.2933 15.6711C21.4322 15.6746 21.5939 15.666 21.7145 15.7241C22.0242 15.8778 21.9946 16.0161 21.9969 16.2756C21.9991 16.5369 21.9217 16.7026 22.0196 16.9655C22.0993 17.1824 22.154 17.3139 22.434 17.4215C22.7482 17.541 22.9509 17.4949 23.2674 17.5052C23.5269 17.5154 23.8434 17.5564 24.1007 17.5888C24.3876 17.6247 24.6358 17.7032 24.9113 17.7493C25.1276 17.7869 25.8129 17.956 25.9882 18.0653C26.2705 18.2377 26.3593 18.1711 26.8557 18.5673C27.0196 18.6988 27.1403 18.9379 27.3156 19.0011C27.4955 18.9379 27.4431 18.8901 27.3407 18.6817C27.2792 18.5588 27.2724 18.4444 27.1927 18.3146C27.0583 18.0977 26.8716 17.8911 26.6212 17.7442C26.0019 17.3822 25.4736 17.3258 24.761 17.1431C24.4126 17.0526 24.0711 17.0407 23.7159 16.9929C23.0898 16.9109 22.73 17.0885 22.7209 16.7726C22.7118 16.4686 22.7118 16.1766 22.6959 15.8726C22.6822 15.6011 22.4909 15.3842 22.179 15.2528C22.0583 15.2015 21.8102 15.1759 21.6713 15.1759C21.5711 15.1759 21.2592 15.2425 21.291 15.0922C21.2933 15.0803 21.4709 14.8002 21.5005 14.7456C21.5756 14.609 21.9445 14.2965 22.1289 14.223C22.2951 14.1564 22.409 14.1445 22.5114 14.0113C22.7255 13.7364 22.8097 13.5827 22.8575 13.2633C22.8803 13.1011 22.9031 12.9748 22.878 12.8108C22.8484 12.6332 22.8598 12.5137 22.8439 12.3498C22.8302 12.2302 22.7255 12.1039 22.6458 11.9997C22.5479 11.8699 22.4636 11.8272 22.2769 11.7794C21.8785 11.6786 21.6485 11.8033 21.225 11.7811C21.0451 11.7709 20.8448 11.8084 20.6672 11.8289C20.4281 11.858 20.3689 11.8528 20.189 11.9775ZM23.98 13.0055C23.9732 12.6879 24.3398 12.7596 24.5948 12.7613C24.7473 12.763 24.8748 12.7579 25.0297 12.7698C25.1936 12.7818 25.3165 12.7511 25.5032 12.7681C25.7833 12.7937 26.1931 12.7442 26.5051 12.7613C26.9126 12.7852 26.8603 13.0414 26.8603 13.2548C26.8603 13.3897 26.8853 13.4683 26.8694 13.61C26.858 13.7193 26.8534 13.8696 26.8557 13.9806C26.8603 14.2299 26.8648 14.445 26.8899 14.6961C26.9126 14.9061 26.8375 15.164 26.8671 15.3979C26.8762 15.4662 26.8807 16.0383 26.8694 16.0758C26.7737 16.3764 25.9814 16.2415 25.74 16.2517C25.5807 16.2586 25.419 16.2552 25.2573 16.2552C25.1139 16.2569 24.9591 16.2432 24.8247 16.2466C24.6608 16.25 24.5242 16.2739 24.3534 16.2637C24.2601 16.2603 24.0529 16.2039 23.9777 16.1612C23.8662 16.098 23.9072 15.9051 23.9117 15.8112C23.9254 15.5618 24.0005 15.3757 23.9777 15.1127C23.9686 14.9966 23.9709 14.8839 23.9595 14.7627C23.9481 14.6346 24.0096 14.5287 23.9891 14.4058C23.9436 14.1479 23.9868 13.9498 23.9777 13.6937C23.9732 13.5622 23.9777 13.499 23.9572 13.3607C23.9459 13.2787 23.9823 13.1216 23.98 13.0055ZM15.0365 13.3487C15.0866 13.4478 15.0752 13.8183 15.0638 13.9396C15.0524 14.0506 15.0593 14.153 15.0547 14.264C15.0524 14.3733 15.0843 14.4997 15.0797 14.5817C15.0752 14.6978 15.0729 14.8156 15.0752 14.9317C15.0775 15.053 15.0388 15.1366 15.0684 15.2528C15.123 15.4696 15.0638 16.0092 15.0547 16.2756C15.0524 16.3576 15.0615 16.3542 15.0797 16.4276C15.0911 16.4754 15.0547 16.8631 15.0524 16.9228C15.0479 17.0133 15.0729 17.15 15.0752 17.2558C15.0775 17.3737 15.0547 17.471 15.0547 17.5905C15.057 17.6998 15.0593 17.8125 15.0547 17.9218C15.0524 18.0226 15.0456 18.1694 15.0638 18.2651C15.0911 18.4 15.0706 18.4734 15.0752 18.598C15.0797 18.6851 15.1276 18.7774 15.1617 18.8627C15.1822 18.9123 15.2414 19.4536 15.485 19.2623C15.5784 19.1889 15.5237 19.0011 15.6239 18.8559C15.6535 18.8132 15.6467 18.7756 15.6603 18.7278C15.6877 18.6288 15.6968 18.5332 15.7287 18.429C15.7719 18.2821 15.756 18.2616 15.7719 18.1284C15.7879 18.0174 15.8243 17.9201 15.8243 17.8023C15.822 17.5854 15.8038 17.3737 15.8015 17.1534C15.8015 16.9348 15.8015 16.7179 15.8015 16.4976C15.7992 16.3918 15.7787 16.2722 15.7879 16.1732C15.8061 15.9836 15.8311 15.7121 15.8129 15.5396C15.7992 15.4218 15.7833 15.3211 15.7924 15.2015C15.8083 14.9864 15.7992 14.7575 15.7924 14.5407C15.7856 14.3153 15.8106 14.1155 15.7992 13.8883C15.7924 13.7722 15.7879 13.6595 15.7924 13.5434C15.7947 13.3948 15.8288 13.3658 16.0269 13.3709C16.2022 13.3743 16.2956 13.3231 16.4322 13.3282C16.6872 13.3368 16.6508 13.2787 16.8102 13.2719C16.9399 13.2668 17.0219 13.2821 17.1403 13.2172C17.3543 13.0977 17.2405 12.9372 16.858 12.9218C16.7168 12.9167 16.6189 12.8877 16.48 12.8672C16.225 12.8279 15.8129 12.915 15.8106 12.6913C15.8083 12.4642 15.7742 12.2422 15.7719 12.0236C15.7696 11.8306 15.633 11.6821 15.5055 11.5198C15.4668 11.4703 15.419 11.2944 15.296 11.3644C15.2528 11.3901 15.1481 11.5506 15.1321 11.595C15.0274 11.8648 15.1321 12.681 15.0593 12.792C14.9659 12.9372 14.4559 12.8638 14.2897 12.874C14.1849 12.8808 13.6954 13.0345 13.643 13.1011C13.5087 13.2753 14.1098 13.2838 14.2009 13.2873C14.3307 13.2924 14.4536 13.3214 14.5857 13.3282C14.7405 13.3368 14.8839 13.3351 15.0365 13.3487ZM4.89532 15.275C4.91353 15.1708 4.94541 15.1315 4.94541 15.0069C4.94313 14.9215 4.9272 14.7814 4.97273 14.708C5.08658 14.5202 5.28466 14.4894 5.53512 14.5475C5.87665 14.6261 5.78557 15.1196 5.80379 15.2852C5.81973 15.4269 5.80607 15.3928 5.77874 15.5294C5.74687 15.6814 5.79241 15.6575 5.79696 15.7719C5.79924 15.8265 5.7833 15.859 5.77647 15.9085C5.76508 15.9649 5.80151 15.9734 5.78785 16.0383C5.74004 16.2978 5.48503 16.1954 5.25734 16.1698C5.0547 16.1476 5.03649 16.0058 4.96363 15.9222C4.93175 15.8863 4.88166 15.8641 4.86344 15.8402C4.8384 15.8043 4.88166 15.3416 4.89532 15.275ZM17.6048 14.2606C17.6663 14.3853 17.6936 14.5185 17.6481 14.6483C17.6367 14.6841 17.6367 15.0735 17.6412 15.1264C17.6572 15.2989 17.7209 15.1725 17.6435 15.526C17.6116 15.6626 17.6367 15.7582 17.6435 15.8931C17.6481 16.011 17.623 16.0058 17.6754 16.1237C17.6959 16.1698 17.6754 16.2893 17.6594 16.3422C17.6321 16.4327 17.6549 16.4857 17.6458 16.5728C17.6321 16.6974 17.6685 16.7128 17.6731 16.7982C17.6799 16.957 17.7164 17.6008 17.7072 17.7049C17.6959 17.862 17.73 17.956 17.7824 18.1062C17.8074 18.178 17.7983 18.2429 17.8165 18.3197C17.837 18.4085 17.8848 18.4631 17.8962 18.5178C17.9031 18.5536 17.9327 18.7142 17.9418 18.7347C17.944 18.7381 18.0807 18.8849 18.0829 18.8883C18.2423 18.9959 18.3129 18.6578 18.3061 18.5895C18.2947 18.4683 18.3311 18.4717 18.3402 18.3948C18.347 18.3197 18.2924 18.3248 18.3357 18.195C18.3721 18.0789 18.3675 17.8723 18.3835 17.7408C18.3971 17.6298 18.3721 17.3771 18.388 17.3088C18.4108 17.2149 18.3607 17.1824 18.3835 17.0834C18.3994 17.0116 18.4062 16.9143 18.3971 16.8409C18.3653 16.5779 18.3744 16.3781 18.3971 16.1237C18.404 16.0536 18.3562 15.9853 18.3562 15.9051C18.3539 15.7753 18.3926 15.5328 18.3653 15.4252C18.347 15.3569 18.3949 15.0837 18.3994 14.9881C18.404 14.9061 18.3675 14.8549 18.3744 14.7712C18.3812 14.6875 18.3812 14.597 18.3766 14.5151C18.3744 14.4502 18.3653 14.4604 18.4062 14.4075C18.4518 14.3511 18.4176 14.3494 18.4313 14.2948C18.4495 14.2299 18.6225 14.247 18.6931 14.235C18.8616 14.2077 19.1576 14.2333 19.2965 14.1718C19.4468 14.1035 19.4012 13.9242 19.2555 13.8525C19.0164 13.7347 18.4222 13.7756 18.1194 13.7586C17.9167 13.7483 17.6594 13.7569 17.45 13.7569C17.3589 13.7586 17.1995 13.733 17.1449 13.7432C17.0492 13.762 16.9582 13.75 16.8557 13.7552C16.603 13.7654 16.5848 13.7073 16.3753 13.861C16.2227 13.9754 16.3206 14.1103 16.4572 14.1991C16.7077 14.3631 17.302 14.2692 17.6048 14.2606ZM25.3165 13.651C25.3894 13.6288 25.5829 13.6544 25.6399 13.6988C25.7355 13.7722 25.7537 13.8218 25.7628 13.9208C25.7765 14.1189 25.7787 14.3153 25.7787 14.5151C25.781 14.7336 25.8266 14.8839 25.7833 15.1093C25.7423 15.3245 25.7583 15.4286 25.4053 15.4286C25.0729 15.4286 25.0297 15.3501 24.9431 15.1435C24.9135 15.0786 24.9545 14.6995 24.9522 14.5902C24.95 14.4006 24.9454 14.1804 24.9887 13.9976C25.0092 13.914 24.9113 13.8918 25.0456 13.762C25.1071 13.7022 25.2277 13.6766 25.3165 13.651ZM13.3926 13.4256C13.215 13.4666 13.149 13.5946 13.1262 13.7193C13.0602 14.0608 12.9213 14.5441 12.6412 14.8139C12.6025 14.8498 11.9695 15.1998 11.8762 15.2459C11.7988 15.2852 11.5187 15.3928 11.5756 15.4799C11.6371 15.5789 12.0265 15.5277 12.1471 15.5123C12.4272 15.4765 12.409 15.4696 12.6526 15.3825C12.9144 15.2903 12.8393 15.5943 12.8256 15.6916C12.8097 15.806 12.8143 16.0263 12.812 16.151C12.812 16.221 12.8234 16.2876 12.8234 16.3559C12.8234 16.431 12.8006 16.5011 12.8006 16.5762C12.796 16.7282 12.8006 16.875 12.8143 17.027C12.8279 17.1875 12.7255 17.278 12.7414 17.4386C12.7619 17.6401 12.796 17.623 12.7664 17.8433C12.7573 17.9047 12.8302 18.5554 12.8325 18.6937C12.8325 18.7825 12.8712 19.0677 13.0738 18.9225C13.2742 18.7774 13.2446 18.3812 13.2879 18.1933C13.3015 18.1302 13.3288 18.0687 13.3357 18.0055C13.3425 17.9355 13.3243 17.8757 13.3379 17.804C13.3744 17.6093 13.4154 17.5854 13.3721 17.372C13.3197 17.1209 13.4381 16.8067 13.3949 16.5284C13.3607 16.3132 13.4017 15.8675 13.4313 15.6404C13.4837 15.2681 13.2605 15.1947 13.5019 14.79C13.5975 14.6278 13.6317 14.6175 13.684 14.428C13.7546 14.1667 13.939 13.8252 13.8389 13.5673C13.7888 13.4358 13.5406 13.3897 13.3926 13.4256ZM14.4536 14.4228C14.0028 14.4314 14.0665 15.0957 14.0756 15.3194C14.0802 15.415 14.0574 15.4918 14.0643 15.596C14.0688 15.678 14.0643 15.7753 14.0643 15.8607C14.0643 16.0297 13.9937 16.1886 14.0324 16.3491C14.0802 16.5523 14.0438 16.6786 14.0438 16.8784C14.046 16.9655 14.0711 17.0458 14.0734 17.1278C14.0756 17.2183 14.0324 17.3019 14.0324 17.3924C14.0301 17.582 13.98 17.7391 13.9982 17.9304C14.0051 18.0209 13.955 18.4256 14.2145 18.3146C14.4263 18.2224 14.572 17.5735 14.6016 17.3924C14.6244 17.2353 14.5834 17.0885 14.6153 16.9263C14.6471 16.7487 14.6471 16.5899 14.6858 16.4088C14.7063 16.3149 14.6927 16.2227 14.7086 16.1271C14.7246 16.0383 14.7428 15.9375 14.7473 15.8487C14.7587 15.6506 14.7268 15.4406 14.7678 15.2476C14.802 15.0939 14.7792 14.889 14.7997 14.72C14.8202 14.568 14.6335 14.4194 14.4536 14.4228ZM16.4868 14.4228C16.2318 14.4348 16.1248 14.5646 16.1089 14.7456C16.0998 14.8668 16.1658 15.707 16.1886 15.8419C16.2182 16.0212 16.2068 16.2142 16.2387 16.3815C16.2728 16.5574 16.3138 16.735 16.3457 16.9109C16.3821 17.1039 16.3844 17.2388 16.455 17.4334C16.5187 17.6076 16.5051 17.7254 16.6007 17.9167C16.6576 18.0328 16.6758 18.3009 16.8375 18.3641C16.9832 18.4222 16.9741 18.2668 16.9673 18.207C16.9536 18.0943 17.0014 18.0192 16.9991 17.9235C16.9969 17.8262 16.9627 17.7596 16.9695 17.6418C16.9741 17.553 16.9582 17.4676 16.9513 17.3788C16.9399 17.1927 16.9513 17.0116 16.9422 16.8255C16.9377 16.7367 16.9058 16.6496 16.9035 16.5659C16.9012 16.4754 16.9035 16.3883 16.899 16.2961C16.8785 15.9631 16.7828 15.5687 16.8284 15.2493C16.8443 15.1469 16.8102 15.0922 16.7965 14.9983C16.7828 14.9078 16.8056 14.8378 16.8079 14.7541C16.8124 14.638 16.669 14.4143 16.4868 14.4228ZM13.4609 11.4225C13.0624 11.4942 13.1194 11.9382 13.0579 12.1004C13.001 12.2541 13.0078 12.3105 12.9053 12.4659C12.6435 12.8621 12.6822 12.7664 12.3566 13.0328C12.138 13.2121 11.6348 13.3897 11.5711 13.4409C11.4982 13.5007 11.5552 13.5639 11.6485 13.5827C11.7328 13.598 11.8375 13.5776 11.9263 13.5776C12.1062 13.5776 12.3247 13.5912 12.4932 13.5451C12.7801 13.4683 12.6913 13.4853 12.9258 13.3726C13.1535 13.2616 13.0989 13.2838 13.2583 13.1233C13.3766 13.0055 13.4154 12.9304 13.4814 12.792C13.5497 12.652 13.6544 12.6093 13.6977 12.4556C13.7341 12.3139 13.7933 12.2063 13.7979 12.0526C13.8024 11.9126 13.9094 11.7367 13.8502 11.6069C13.8024 11.5062 13.6043 11.3969 13.4609 11.4225ZM17.7983 11.7418C17.6754 11.7811 17.45 11.8358 17.4818 11.9809C17.5137 12.1124 17.6572 12.1807 17.7983 12.2422C17.8962 12.2866 18.2719 12.3139 18.363 12.2712C18.3903 12.2575 18.8206 12.2046 18.914 12.1858C19.0825 12.1517 19.2464 12.2046 19.3124 12.0151C19.3671 11.8545 19.1371 11.8101 19.0005 11.7845C18.8138 11.7504 17.9486 11.694 17.7983 11.7418ZM29.1257 11.373C28.996 11.3918 28.7296 11.4874 28.7159 11.6018C28.7068 11.6735 28.8366 11.9109 28.8798 11.9911C28.9276 12.0834 29.0825 12.2319 29.1644 12.3224C29.2646 12.4317 29.3853 12.471 29.49 12.6315C29.6039 12.804 29.8407 12.7135 29.7815 12.4744C29.745 12.3241 29.7086 12.1773 29.6722 12.0287C29.6494 11.9382 29.5356 11.7282 29.4946 11.6172C29.4513 11.5028 29.3124 11.3457 29.1257 11.373ZM31.6781 11.3764C31.1681 11.4447 31.1021 11.6513 31.3639 11.9724C31.496 12.1346 31.4094 12.15 31.6348 12.3036C31.7874 12.4078 31.8375 12.4966 31.9536 12.5991C32.2154 12.8296 32.3407 12.5171 32.195 12.2507C32.1631 12.1909 32.179 12.1056 32.1676 12.0577C32.1562 12.0168 32.0925 11.9416 32.0674 11.8665C32.031 11.7589 31.9946 11.7504 31.9627 11.6752C31.9195 11.5779 31.9035 11.3457 31.6781 11.3764ZM30.3348 11.3918C30.189 11.4362 29.9682 11.4737 29.9613 11.6206C29.9545 11.7743 30.0911 11.8819 30.1458 11.9997C30.1845 12.0868 30.1526 12.0885 30.2346 12.179C30.3484 12.3054 30.5533 12.5359 30.6786 12.6383C30.8539 12.7801 31.0201 12.6144 30.9791 12.4556C30.9632 12.3942 30.9085 12.3088 30.9017 12.2575C30.8675 12.0321 30.7355 11.7367 30.7195 11.6069C30.7059 11.4754 30.5283 11.3354 30.3348 11.3918ZM16.7897 11.2688C16.6644 11.3388 16.4664 11.8819 16.4823 11.9946C16.5028 12.138 16.4595 12.2934 16.5369 12.4266C16.6736 12.6554 17.2063 12.6845 17.1881 12.3378C17.1836 12.2797 17.1995 12.1653 17.195 12.1312C17.1881 12.097 17.154 11.9348 17.1608 11.9194C17.2223 11.7538 17.1608 11.6633 17.0834 11.513C17.0561 11.4584 16.899 11.2056 16.7897 11.2688ZM35.0023 11.3969C34.893 11.4327 34.6745 11.4208 34.6836 11.5984C34.6858 11.6479 34.6608 11.6172 34.6699 11.6667C34.6767 11.7128 34.695 11.6974 34.6904 11.7606C34.679 11.8767 34.7359 11.8528 34.7655 11.9246C34.7906 11.9826 34.8042 12.0424 34.8134 12.1021C34.8225 12.1568 34.8817 12.167 34.9158 12.2575C34.9887 12.4488 35.082 12.5034 35.1276 12.5683C35.1663 12.623 35.3735 12.7015 35.378 12.3942C35.3803 12.3771 35.4144 12.2149 35.4213 12.1909C35.4463 12.1021 35.4258 12.0663 35.4122 11.9843C35.3962 11.8921 35.4167 11.8767 35.3848 11.7726C35.3712 11.7282 35.3621 11.6291 35.3552 11.5796C35.3439 11.4635 35.1435 11.3474 35.0023 11.3969ZM29.0734 10.7531C29.0734 10.7599 29.0825 10.7736 29.087 10.7804C29.0939 10.7873 29.1007 10.7924 29.1098 10.7975C29.1348 10.8112 29.1394 10.8112 29.1553 10.8197C29.1963 10.8402 29.2236 10.7992 29.1781 10.7702C29.1622 10.7616 29.1531 10.7599 29.144 10.748C29.128 10.7326 29.1257 10.7275 29.0961 10.7275C29.0825 10.7275 29.0734 10.7463 29.0734 10.7531ZM24.8748 13.1319C24.1872 13.2241 24.3534 13.4461 24.3011 13.8508C24.2555 14.1991 24.3534 14.5492 24.342 14.6551C24.3284 14.7814 24.3056 14.7934 24.3329 14.93C24.4012 15.2733 24.1462 15.5601 24.6494 15.8453C24.8839 15.9785 24.9705 15.9819 25.2482 15.97C25.4691 15.9597 25.7742 16.0144 25.9541 15.9375C26.3958 15.7514 26.5483 15.5396 26.4914 15.1469C26.4755 15.0359 26.5005 14.9625 26.4914 14.8771C26.4823 14.79 26.4163 14.7541 26.4117 14.6414C26.4094 14.5509 26.4345 14.4707 26.4322 14.387C26.4299 14.2623 26.3821 14.2623 26.4254 14.1189C26.4755 13.9584 26.4481 13.7603 26.4755 13.5998C26.4937 13.4956 26.5256 13.4614 26.4572 13.359C26.414 13.2958 26.3593 13.2189 26.2728 13.1848C26.184 13.1506 26.0816 13.1199 25.9814 13.1387C25.8061 13.1728 25.7992 13.1267 25.6399 13.1216C25.5146 13.1182 24.9818 13.1165 24.8748 13.1319ZM4.46727 12.8211C4.06882 12.8159 4.15534 13.2019 4.17811 13.4017C4.20998 13.6903 4.20771 13.9191 4.20543 14.2077C4.20315 14.3477 4.23731 14.4604 4.24641 14.5936C4.25552 14.7524 4.24641 14.8361 4.28967 14.9966C4.34659 15.222 4.25097 15.4901 4.2578 15.7446C4.26235 15.8692 4.21226 15.9495 4.23275 16.0776C4.25324 16.2056 4.22592 16.3064 4.28512 16.4362C4.38986 16.6769 4.61527 16.7794 4.92947 16.8272C5.09113 16.8511 5.77191 16.8323 5.92902 16.7914C6.20679 16.7196 6.42537 16.5659 6.49823 16.3491C6.5506 16.1954 6.49368 16.1424 6.49368 15.9973C6.49368 15.8607 6.51645 15.7753 6.50279 15.6267C6.48913 15.485 6.54377 15.3774 6.54605 15.2493C6.54832 15.1127 6.42537 15.0513 6.42765 14.9027C6.42993 14.6517 6.52556 14.4126 6.54377 14.1445C6.56199 13.8883 6.72592 13.6732 6.39577 13.4871C6.09978 13.318 5.76508 13.3983 5.79013 13.7125C5.79696 13.832 5.84933 13.9635 5.62392 13.972C4.94313 13.9993 4.91809 14.0318 4.94313 13.721C4.95452 13.5912 4.94313 13.4392 4.94313 13.3077C4.94541 13.0721 4.83612 12.8279 4.46727 12.8211ZM23.363 11.3952C23.1991 11.4549 23.2446 11.7589 23.2491 11.8665C23.2583 12.0492 23.2537 12.2285 23.2628 12.4095C23.2833 12.7698 23.2537 13.1592 23.2491 13.5229C23.2491 13.7005 23.2605 13.8627 23.2605 14.0369C23.2628 14.2316 23.3015 14.3989 23.3129 14.5885C23.347 15.1537 23.1649 15.6558 23.2696 16.2347C23.2947 16.3747 23.404 16.5591 23.5451 16.653C23.7387 16.7845 23.8548 16.8221 24.1166 16.8187C24.3785 16.8153 24.613 16.8323 24.8817 16.8255C25.1389 16.8204 25.394 16.8375 25.6626 16.8306C25.9358 16.8221 26.2113 16.8272 26.4868 16.8272C26.7123 16.8255 26.9604 16.8528 27.1631 16.7606C27.2906 16.7026 27.5274 16.5369 27.5661 16.4259C27.6389 16.2244 27.6162 15.5414 27.5911 15.3108C27.5615 15.0478 27.6481 14.5338 27.6071 14.1838C27.5889 14.0096 27.6321 13.8064 27.6253 13.6168C27.6185 13.4239 27.6071 13.2787 27.6207 13.0806C27.6435 12.7767 27.7164 12.2268 27.6116 11.9502C27.5729 11.8426 27.393 11.5813 27.22 11.723C27.0902 11.8272 27.1335 12.0424 26.9422 12.1483C26.7828 12.2371 26.4276 12.1756 26.2136 12.1927C25.8971 12.22 25.7605 12.1858 25.4714 12.1858C25.2118 12.1858 24.9431 12.1807 24.6858 12.1841C24.49 12.1875 24.1371 12.2405 24.0096 12.1192C23.9322 12.0441 23.8821 11.747 23.8297 11.624C23.7797 11.5045 23.5224 11.3371 23.363 11.3952ZM9.48093 14.4246C9.71089 14.4143 9.95907 14.4485 10.1731 14.3648C10.3803 14.2828 10.4281 14.1906 10.5579 14.0711C10.7742 13.8696 10.6558 13.3385 10.6854 13.0772C10.6991 12.9748 10.6922 12.6298 10.6786 12.5239C10.6558 12.3498 10.5966 12.5137 10.608 12.0151C10.6103 11.9519 10.5875 11.8289 10.5374 11.7794C10.4873 11.7265 10.3735 11.6701 10.2847 11.6889C9.96135 11.7538 10.0843 11.8631 9.99095 12.0492C9.93858 12.1517 10.0297 12.2029 9.82246 12.2097C9.68585 12.2149 9.59022 12.2029 9.46044 12.1978C9.34659 12.1927 9.26918 12.1995 9.15989 12.2012C9.03239 12.2012 8.93676 12.1722 8.79559 12.1807C8.69086 12.1875 8.57474 12.2131 8.47228 12.2029C8.35843 12.1927 8.27191 12.1824 8.15579 12.1773C7.68904 12.1551 7.84159 12.2934 7.62073 11.776C7.56836 11.6547 7.59113 11.6308 7.55925 11.5318C7.50006 11.3354 7.19268 11.3661 7.12665 11.4925C7.09022 11.5659 7.02874 11.8665 7.02191 11.9502C7.01736 11.9911 7.04924 12.1226 7.04924 12.2012C7.04924 12.278 7.0629 12.4249 7.04468 12.4932C7.01508 12.6144 7.05834 12.6144 7.05151 12.7271C7.03557 13.0294 7.07428 12.9082 7.01053 13.2326C6.99459 13.3129 7.02419 13.4017 7.01964 13.4871C7.01281 13.5895 7.0629 13.6612 7.04241 13.7398C7.02419 13.8149 7.05834 13.8883 7.08567 13.9635C7.15397 14.1496 7.22228 14.1923 7.40898 14.3033C7.48184 14.346 7.5547 14.3921 7.6435 14.4126C7.73913 14.4348 7.919 14.3921 7.98275 14.4536C8.0374 14.5048 8.02373 14.6448 8.02373 14.7114C8.02373 14.8019 7.97364 14.848 7.88257 14.8993C7.49095 15.1179 6.91945 15.4611 6.83521 15.8573C6.76918 16.1664 6.76918 16.3303 6.77601 16.6274C6.77829 16.7196 6.73047 16.7879 6.72364 16.8853C6.71681 16.9809 6.72592 17.0799 6.72592 17.1739C6.72364 17.2422 6.70087 17.2371 6.68494 17.2883C6.67355 17.3258 6.68266 17.3907 6.68266 17.4317C6.68038 17.6213 6.66217 17.792 6.65078 17.9799C6.64623 18.0516 6.62346 18.137 6.63029 18.2104C6.64395 18.3402 6.59386 18.3709 6.59614 18.4529C6.60069 18.5844 6.65306 18.5297 6.60069 18.7022C6.53466 18.9208 6.95588 19.2367 6.99231 18.7603C7.0037 18.61 7.13348 18.6066 7.14714 18.2958C7.15169 18.1797 7.1016 18.2326 7.15397 18.0909C7.1904 17.997 7.20634 17.9355 7.21089 17.8364C7.21772 17.7511 7.22 17.6691 7.22683 17.582C7.23366 17.4812 7.28375 17.4249 7.28603 17.331C7.28603 17.1773 7.37938 17.0202 7.39532 16.8648C7.40215 16.8153 7.39304 16.7811 7.39077 16.735C7.38621 16.6804 7.41126 16.665 7.41809 16.6172C7.43175 16.5318 7.4272 16.4532 7.45907 16.3661C7.48639 16.2859 7.52282 16.2108 7.52055 16.1271C7.51599 15.9785 7.55015 16.0127 7.60479 15.8948C7.69587 15.6899 8.12847 15.4064 8.38348 15.3159C8.62938 15.2306 8.65898 15.1947 8.7455 15.0069C8.80242 14.8856 8.73184 14.5526 8.77965 14.4672C8.80698 14.416 8.97091 14.346 9.00506 14.4587C9.01417 14.4946 9.02556 14.6909 9.02556 14.7371C9.02328 14.93 8.96636 15 9.13712 15.181C9.36253 15.4167 9.75188 15.193 10.0615 15.6489C10.1162 15.7309 10.1685 15.7463 10.2209 15.8146C10.2505 15.8521 10.2915 16.0178 10.2847 16.0588C10.2596 16.2603 10.2687 16.373 10.3074 16.5745C10.3302 16.6923 10.3439 17.0116 10.3416 17.1363C10.3393 17.2456 10.378 17.2507 10.3552 17.3737C10.3439 17.4454 10.3484 17.5564 10.3644 17.6281C10.3917 17.7596 10.3848 17.9918 10.4532 18.1045C10.5442 18.2548 10.5124 18.3948 10.5192 18.4495C10.5237 18.4939 10.5488 18.528 10.5533 18.5741C10.567 18.6646 10.5647 18.7227 10.6216 18.8098C10.6262 18.82 10.7651 18.9942 10.7674 18.9959C10.9313 19.124 11.052 18.8013 11.0793 18.7227C11.1066 18.639 11.0747 18.5297 11.0907 18.4444C11.1066 18.3607 11.1362 18.277 11.1362 18.1916C11.1362 18.0021 11.0884 17.8825 11.0884 17.6913C11.0884 17.6042 11.0998 17.5017 11.0952 17.4181C11.0838 17.2695 10.9996 17.2353 11.0383 16.8955C11.0497 16.7948 11.036 16.735 11.036 16.636C11.0383 16.4567 10.9563 15.7941 10.8516 15.6609C10.7583 15.5431 10.6626 15.4167 10.5169 15.3313C10.4099 15.2698 10.2209 15.0786 10.1253 15.0444C9.98639 14.9966 9.76782 14.8976 9.64486 14.8241C9.4149 14.6841 9.52419 14.5987 9.48093 14.4246ZM29.5196 14.4894C29.6153 14.4724 29.8225 14.4911 29.934 14.4843C30.0274 14.4775 30.1594 14.445 30.2277 14.5168C30.3052 14.6004 30.2778 14.6927 30.2778 14.7934C30.2778 14.872 30.3165 15.0086 30.23 15.0615C30.0638 15.1605 29.7974 15.082 29.6631 14.9812C29.5287 14.8805 29.5743 14.889 29.5447 14.7746C29.531 14.7217 29.5037 14.5304 29.5196 14.4894ZM30.0501 13.4153C30.1936 13.3948 30.2482 13.4444 30.2482 13.5519C30.246 13.7312 30.2778 13.581 30.2687 13.803C30.2619 13.9191 30.1549 13.9003 30.0388 13.9157C29.934 13.931 29.5083 13.9584 29.4991 13.8491C29.4969 13.7944 29.5174 13.6442 29.5333 13.5895C29.5515 13.5144 29.6449 13.4871 29.7223 13.4461C29.827 13.3863 29.9295 13.4341 30.0501 13.4153ZM31.0178 13.9293C31.0087 13.8644 31.0133 13.7842 31.0133 13.7193C31.0155 13.6424 30.9882 13.5963 30.9928 13.5349C31.0064 13.3675 31.1817 13.4119 31.3366 13.4205C31.5529 13.4324 31.5369 13.4307 31.6531 13.5673C31.7419 13.6715 31.71 13.7739 31.6849 13.8918C31.6417 13.8969 31.5483 13.8952 31.5028 13.8883L31.1817 13.9208C31.143 13.9327 31.0634 13.9379 31.0178 13.9293ZM31.0246 16.1851C30.9928 16.0502 30.9495 15.7753 31.0019 15.6489C31.1157 15.3791 31.6462 15.7207 32.1858 15.3655C32.3839 15.234 32.3976 15.1435 32.4158 14.9539C32.4386 14.7285 32.4454 14.6551 32.4204 14.4297C32.4021 14.2657 32.4477 14.083 32.4317 13.8918C32.4181 13.7108 32.4044 13.5246 32.4181 13.3436C32.4317 13.1677 32.4249 13.0465 32.2154 12.9389C31.9923 12.8245 31.8739 12.8535 31.628 12.8603C31.3935 12.8655 31.1521 12.8347 30.9085 12.8416C30.674 12.8467 30.5169 12.845 30.2847 12.8416C30.0615 12.8364 29.8202 12.8603 29.5811 12.8586C29.1121 12.8535 28.7751 12.9543 28.8001 13.347C28.8115 13.5093 28.791 13.6646 28.807 13.8286C28.8184 13.972 28.8389 14.2572 28.807 14.3887C28.7501 14.638 28.7637 15.0922 28.996 15.2903C29.5492 15.7616 29.8407 15.4099 30.2072 15.5601C30.3461 15.6182 30.3234 15.9546 30.3029 16.0605C30.2596 16.2808 29.9705 16.2176 29.7473 16.2244C29.4809 16.2312 29.2396 16.2398 28.9686 16.2398C28.7888 16.2398 28.3698 16.1937 28.2742 16.3235C28.026 16.665 29.1485 16.6667 29.3489 16.6564C29.5606 16.6479 29.8384 16.653 30.0479 16.6701C30.3803 16.6974 30.2687 16.8989 30.2664 17.0902C30.2619 17.2712 30.2733 17.4642 30.2733 17.6486C30.271 17.833 30.3143 17.9628 30.3302 18.137C30.337 18.2309 30.3302 18.3214 30.3393 18.4136C30.3484 18.5058 30.3848 18.5827 30.4031 18.6715C30.4349 18.8149 30.4349 19.0608 30.7287 18.9874C30.7605 18.9481 30.8698 18.2838 30.8789 18.1916C30.8835 18.137 30.8835 18.0584 30.8926 18.0089C30.9108 17.8996 30.9495 17.9338 30.9654 17.8228C30.9837 17.6879 30.9563 17.5547 30.9586 17.4181C30.9632 17.2797 30.7833 16.7026 31.0292 16.6599C31.0861 16.6496 31.8056 16.6582 31.9673 16.6582C32.0857 16.6582 32.179 16.6428 32.2746 16.6428C32.4181 16.8084 32.3316 16.9331 32.3338 17.109C32.3338 17.1909 32.343 17.2797 32.3498 17.3634C32.3566 17.4454 32.3999 17.5239 32.3999 17.6008C32.3953 17.833 32.3953 17.7886 32.4659 18.0072C32.5114 18.1524 32.5365 18.3248 32.5775 18.4683C32.6253 18.6305 32.8439 18.6681 32.9144 18.4529C32.9668 18.289 33.0465 17.6366 33.0397 17.4693C33.0374 17.3873 33.0032 17.3002 33.0237 17.22C33.0511 17.1004 33.0715 17.1107 33.0442 16.9792C33.0237 16.8784 33.0465 16.8494 33.0602 16.7555C33.0738 16.6735 33.0442 16.6001 33.0442 16.5181C33.0465 16.4362 33.0738 16.361 33.0715 16.2756C33.067 16.1783 33.0715 16.1049 33.0807 16.0075C33.0943 15.8351 32.9873 15.7172 33.1945 15.5823C33.3106 15.5055 33.6362 15.4184 33.6977 15.567C33.7273 15.6421 33.7045 15.7155 33.7478 15.7992C33.7933 15.8863 33.8115 15.8795 33.8252 15.9802C33.8411 16.11 33.9094 16.2825 33.9504 16.4123C33.996 16.5625 34.0643 16.6974 34.0939 16.8494C34.1235 16.9946 34.2236 17.1226 34.2874 17.261C34.3193 17.3276 34.342 17.401 34.3671 17.4693C34.4103 17.5854 34.6585 17.8672 34.7337 18.0157C34.8316 18.2121 35.4008 18.8918 35.6786 18.9396C35.781 18.9567 35.8584 18.8849 35.8448 18.8269C35.8311 18.7722 35.7446 18.6954 35.7127 18.6459C35.5556 18.417 35.353 18.125 35.271 17.8791C35.2368 17.775 35.2482 17.7733 35.1731 17.6845L34.9454 17.3088L34.827 16.8716C34.7997 16.7811 34.761 16.7418 34.7291 16.6667C34.7018 16.5984 34.7086 16.5198 34.6722 16.4327C34.6449 16.3696 34.597 16.2808 34.5834 16.2193C34.5697 16.1612 34.5196 16.0963 34.5037 16.0127C34.4832 15.9187 34.4787 15.8778 34.4399 15.7838C34.3785 15.6421 34.2305 15.4782 34.5083 15.4389C34.7109 15.4116 34.9591 15.4321 35.1776 15.3945C35.3348 15.3689 35.6034 15.3757 35.7059 15.3177C35.9222 15.1913 35.7355 15.07 35.526 15.0444C35.4167 15.0308 35.3143 15.0342 35.2072 15.0188C35.1093 15.0034 35.0183 14.9812 34.9158 14.9795C34.2282 14.9676 34.251 15.0342 34.103 14.539C34.0597 14.3904 34.0574 14.2316 34.021 14.083C33.9459 13.7978 34.1326 13.9191 34.4012 13.9054C34.613 13.8952 34.8134 13.8422 35.016 13.8286C35.1981 13.8166 35.4281 13.8542 35.5351 13.7073C35.7423 13.4273 34.7496 13.4222 34.5834 13.429C34.4923 13.4324 34.0483 13.4187 33.996 13.3812C33.9072 13.3146 33.9322 13.0209 33.9368 12.9201C33.9459 12.7391 33.9072 12.6213 33.8981 12.459C33.8958 12.3805 33.9185 12.3071 33.9117 12.2234C33.9049 12.1312 33.8707 12.0646 33.8753 11.9689C33.8798 11.8323 33.8707 11.6223 33.8001 11.4959C33.7136 11.3457 33.4905 11.3286 33.3243 11.4123C33.1239 11.513 33.1034 11.6223 33.1376 11.7965C33.1672 11.9502 33.149 12.0834 33.1945 12.2336C33.2856 12.5427 33.2036 12.8825 33.2355 13.1882C33.2583 13.4273 33.24 13.4529 32.8962 13.4375C32.6754 13.4273 32.5479 13.4836 32.5775 13.6698C32.6048 13.8269 32.7915 13.8986 32.9827 13.9054C33.3721 13.9191 33.322 13.8405 33.3835 14.1582C33.3949 14.2145 33.3675 14.2265 33.3698 14.264C33.3744 14.2982 33.3971 14.3033 33.404 14.3614C33.4108 14.4211 33.4586 14.5048 33.4654 14.5817C33.4768 14.7029 33.6408 14.8959 33.3903 14.9334C33.1171 14.9761 33.0875 14.9693 32.8393 15.0649C32.8097 15.0752 32.6708 15.1657 32.6367 15.1879C32.5889 15.2203 32.5319 15.3074 32.4887 15.3535C32.2633 15.6045 32.4386 16.1424 32.2701 16.2056C32.1813 16.2398 32.0629 16.2449 31.9695 16.2244C31.8921 16.209 31.2 16.2244 31.0246 16.1851Z" fill="url(#paint0_linear_3806_305)"/>
</g>
<defs>
<linearGradient id="paint0_linear_3806_305" x1="20.0003" y1="16.5495" x2="20.0003" y2="13.4519" gradientUnits="userSpaceOnUse">
<stop/>
<stop offset="1" stop-color="#1D1819"/>
</linearGradient>
<clipPath id="clip0_3806_305">
<rect width="40" height="30" fill="white"/>
</clipPath>
</defs>
</svg>
